<svg xmlns="http://www.w3.org/2000/svg" xmlns:xlink="http://www.w3.org/1999/xlink" width="181" height="232" version="1.1" viewBox="0 0 181 232"><title>angry</title><desc>Created with Sketch.</desc><g id="Page-1" fill="none" fill-rule="evenodd" stroke="none" stroke-width="1"><g id="Group-2" fill="#FFF" transform="translate(0.890950, 0.794950)"><path id="Stroke-12" fill-rule="nonzero" d="M40.3911425,100.136443 L40.389,100.02605 C40.389,100.044764 40.3890117,100.063476 40.3890352,100.082188 L40.3911425,100.136443 Z M89.7061594,151.224965 C114.649272,151.101309 139.4681,126.9537 139.4681,100.02605 L140.888894,51.2818719 L140.8901,51.19905 C140.8901,22.9399361 117.950492,1.42108547e-14 89.69205,1.42108547e-14 C61.4334361,1.42108547e-14 38.493,22.9401085 38.493,51.19905 L38.4951425,51.3094429 L40.3890351,100.082172 C40.4229027,127.1279 64.9249749,151.347864 89.7061594,151.224965 Z M133.779206,99.9432281 C133.778,123.780264 111.529968,145.426603 89.6779458,145.534935 C68.0256272,145.642316 46.0791,123.933218 46.0791,100.02605 L46.0769575,99.9156571 L44.1831319,51.144654 C44.2125505,26.0532451 64.5941076,5.6901 89.69205,5.6901 C114.794316,5.6901 135.177911,26.0603911 135.199982,51.1582463 L133.779206,99.9432281 Z"/><path id="Stroke-13" fill-rule="nonzero" d="M40.3911425,100.136443 L40.389,100.02605 C40.389,100.044764 40.3890117,100.063476 40.3890352,100.082188 L40.3911425,100.136443 Z M89.7061594,151.224965 C114.649272,151.101309 139.4681,126.9537 139.4681,100.02605 L140.888894,51.2818719 L140.8901,51.19905 C140.8901,22.9399361 117.950492,1.42108547e-14 89.69205,1.42108547e-14 C61.4334361,1.42108547e-14 38.493,22.9401085 38.493,51.19905 L38.4951425,51.3094429 L40.3890351,100.082172 C40.4229027,127.1279 64.9249749,151.347864 89.7061594,151.224965 Z M133.779206,99.9432281 C133.778,123.780264 111.529968,145.426603 89.6779458,145.534935 C68.0256272,145.642316 46.0791,123.933218 46.0791,100.02605 L46.0769575,99.9156571 L44.1831319,51.144654 C44.2125505,26.0532451 64.5941076,5.6901 89.69205,5.6901 C114.794316,5.6901 135.177911,26.0603911 135.199982,51.1582463 L133.779206,99.9432281 Z"/><path id="Stroke-14" fill-rule="nonzero" d="M60.7655262,76.1913502 C60.9519934,75.9488968 61.5557181,75.4394197 62.695702,74.8741752 C64.7440861,73.8585137 67.5582738,73.227516 71.2681192,73.2117328 C74.14731,73.1992044 76.3371399,73.8032581 77.9543446,74.7928077 C78.8402926,75.3349094 79.328902,75.8325452 79.4878818,76.0750217 L80.5278535,77.66119 L83.70019,75.5812465 L82.6602182,73.9950783 C82.2094099,73.3075039 81.3282476,72.4100634 79.9342451,71.5570887 C77.7125868,70.1976807 74.8309438,69.4027938 71.2517968,69.418368 C66.9773491,69.4365531 63.5921226,70.1955893 61.0105741,71.4756127 C60.052315,71.9507515 59.2630169,72.4708092 58.6309317,73.0042194 C58.2151248,73.3551145 57.9290241,73.6571223 57.7585738,73.8787498 L56.6022736,75.382226 L59.609226,77.6948264 L60.7655262,76.1913502 Z"/><path id="Fill-15" d="M70.16805,70.84105 C72.48305,70.84105 74.36205,72.72005 74.36205,75.03505 C74.36205,77.35105 72.48305,79.23005 70.16805,79.23005 C67.85205,79.23005 65.97305,77.35105 65.97305,75.03505 C65.97305,72.72005 67.85205,70.84105 70.16805,70.84105 Z"/><polygon id="Stroke-16" fill-rule="nonzero" points="56.662 58.983 81.733 73.915 83.674 70.656 58.603 55.724"/><path id="Stroke-17" fill-rule="nonzero" d="M120.245526,73.8787498 C120.075076,73.6571223 119.788975,73.3551145 119.373168,73.0042194 C118.741083,72.4708092 117.951785,71.9507515 116.993526,71.4756127 C114.411977,70.1955893 111.026751,69.4365531 106.752119,69.4183672 C103.173156,69.4027938 100.291513,70.1976807 98.0698549,71.5570887 C96.6758524,72.4100634 95.7946901,73.3075039 95.3438818,73.9950783 L94.30391,75.5812465 L97.4762465,77.66119 L98.5162182,76.0750217 C98.675198,75.8325452 99.1638074,75.3349094 100.049755,74.7928077 C101.66696,73.8032581 103.85679,73.1992044 106.735797,73.211732 C110.445826,73.227516 113.260014,73.8585137 115.308398,74.8741752 C116.448382,75.4394197 117.052107,75.9488968 117.238574,76.1913502 L118.394874,77.6948264 L121.401826,75.382226 L120.245526,73.8787498 Z"/><path id="Fill-18" d="M107.83605,70.84105 C105.52105,70.84105 103.64105,72.72005 103.64105,75.03505 C103.64105,77.35105 105.52105,79.23005 107.83605,79.23005 C110.15105,79.23005 112.03105,77.35105 112.03105,75.03505 C112.03105,72.72005 110.15105,70.84105 107.83605,70.84105 Z"/><polygon id="Stroke-19" fill-rule="nonzero" points="119.401 55.724 94.33 70.656 96.271 73.915 121.342 58.983"/><polygon id="Stroke-20" fill-rule="nonzero" points="82.904 98.778 96.893 98.778 96.893 94.036 82.904 94.036"/><polygon id="Stroke-21" fill-rule="nonzero" points="76.444 113.696 103.353 113.696 103.353 111.196 76.444 111.196"/><path id="Stroke-22" fill-rule="nonzero" d="M115.48365,141.20617 L109.79357,141.19105 L109.736774,162.564894 L112.039679,163.017252 C148.718484,170.222031 173.693,190.381617 173.693,212.73055 L173.693,215.5756 L179.3831,215.5756 L179.3831,212.73055 C179.3831,187.575983 153.23544,165.971731 115.439275,157.905657 L115.48365,141.20617 Z"/><path id="Stroke-23" fill-rule="nonzero" d="M-7.10542736e-15,212.73055 L-7.10542736e-15,215.5756 L5.6901,215.5756 L5.6901,212.73055 C5.6901,190.381617 30.6646158,170.222031 67.3434211,163.017252 L69.6469325,162.564775 L69.5887927,142.624317 L63.8987169,142.640907 L63.9432242,157.905785 C26.1473831,165.97196 7.10542736e-15,187.576117 -7.10542736e-15,212.73055 Z"/></g></g></svg>