<svg xmlns="http://www.w3.org/2000/svg" xmlns:xlink="http://www.w3.org/1999/xlink" width="339" height="306" version="1.1" viewBox="0 0 339 306"><title>capitulation</title><desc>Created with Sketch.</desc><g id="Page-1" fill="none" fill-rule="evenodd" stroke="none" stroke-width="1"><g id="Group-6" fill="#FFF" transform="translate(5.004690, 19.761600)"><path id="Stroke-1" fill-rule="nonzero" d="M107.628965,109.825014 C107.673315,139.67052 134.681075,166.363346 162.055728,166.227754 C189.587205,166.091307 216.927803,139.507224 216.961678,109.806654 L218.512133,56.584678 L218.51371,56.4764 C218.51371,25.3051188 193.20826,5.68434189e-14 162.03731,5.68434189e-14 C130.865526,5.68434189e-14 105.55991,25.3049532 105.55991,56.4764 L105.562711,56.6206998 L107.628965,109.824984 L107.628965,109.825014 Z M216.96171,109.7514 L216.960133,109.859678 L216.961678,109.806631 C216.961699,109.788237 216.96171,109.769819 216.96171,109.7514 Z M209.526487,109.643122 L209.52491,109.7514 C209.52491,135.326614 185.527475,158.674536 162.018882,158.791046 C138.733436,158.906383 115.06571,135.495053 115.06571,109.7514 L115.062909,109.6071 L112.99676,56.4055169 C113.035091,29.3738682 134.996345,7.4368 162.03731,7.4368 C189.083322,7.4368 211.048117,29.3835904 211.076882,56.4232205 L209.526487,109.643122 Z"/><path id="Stroke-2" fill-rule="nonzero" d="M130.374456,84.6573969 C130.439133,84.4678035 130.608407,84.0649368 130.893776,83.5219499 C131.382481,82.5920649 132.010502,81.6590205 132.785255,80.7927819 C134.941895,78.3814784 137.786457,76.9431403 141.524173,76.9072547 C144.296932,76.8802944 146.478563,78.2374355 148.210864,80.6277498 C148.84163,81.4981115 149.361754,82.4418777 149.772538,83.3853794 C150.015172,83.9426697 150.162787,84.3611815 150.22261,84.5669616 L150.800172,86.5536615 L154.773571,85.3985384 L154.19601,83.4118384 C154.089554,83.0456503 153.884121,82.4632177 153.56645,81.7335795 C153.043392,80.5322003 152.381439,79.3310856 151.561402,78.1995586 C149.106454,74.8121002 145.756237,72.7280096 141.484194,72.7695478 C136.513038,72.8172756 132.595145,74.7983382 129.700986,78.0342494 C128.68522,79.1699601 127.869504,80.3818615 127.230924,81.5969224 C126.839922,82.3409029 126.588613,82.939011 126.458164,83.3214031 L125.790167,85.2795487 L129.706459,86.6155425 L130.374456,84.6573969 Z"/><path id="Fill-3" d="M140.71131,78.3794 C143.23631,78.3794 145.28631,80.4294 145.28631,82.9544 C145.28631,85.4804 143.23631,87.5304 140.71131,87.5304 C138.18531,87.5304 136.13531,85.4804 136.13531,82.9544 C136.13531,80.4294 138.18531,78.3794 140.71131,78.3794 Z"/><polygon id="Stroke-4" fill-rule="nonzero" points="126.583 61.923 154.49 58.89 154.043 54.776 126.136 57.809"/><path id="Stroke-5" fill-rule="nonzero" d="M172.968433,83.881463 C173.033115,83.6918774 173.202405,83.2890177 173.487805,82.7460363 C173.976566,81.8161541 174.604662,80.8831104 175.379514,80.0168686 C177.536173,77.6058431 180.380739,76.1675114 184.11838,76.1312527 C186.890932,76.1042944 189.072563,77.4614355 190.804864,79.8517498 C191.43563,80.7221115 191.955754,81.6658777 192.366538,82.6093794 C192.609172,83.1666697 192.756787,83.5851815 192.81661,83.7909616 L193.394172,85.7776615 L197.367571,84.6225384 L196.79001,82.6358384 C196.683554,82.2696503 196.478121,81.6872177 196.16045,80.9575795 C195.637392,79.7562003 194.975439,78.5550856 194.155402,77.4235586 C191.700454,74.0361002 188.350237,71.9520096 184.078194,71.9935478 C179.10718,72.0417715 175.189508,74.0227107 172.295415,77.2581464 C171.279523,78.3938575 170.463706,79.6057635 169.825046,80.8208308 C169.433994,81.5648192 169.182653,82.162936 169.052187,82.545337 L168.384124,84.5034601 L172.30037,85.839586 L172.968433,83.881463 Z"/><path id="Fill-6" d="M182.78731,79.1554 C185.31331,79.1554 187.36331,81.2054 187.36331,83.7304 C187.36331,86.2564 185.31331,88.3064 182.78731,88.3064 C180.26231,88.3064 178.21231,86.2564 178.21231,83.7304 C178.21231,81.2054 180.26231,79.1554 182.78731,79.1554 Z"/><polygon id="Stroke-7" fill-rule="nonzero" points="197.084 57.034 169.177 54 168.73 58.114 196.637 61.148"/><polygon id="Stroke-8" fill-rule="nonzero" points="154.795 108.479 170.054 108.479 170.054 103.306 154.795 103.306"/><path id="Stroke-9" fill-rule="nonzero" d="M146.50902,131.570037 C146.709593,131.516235 147.116726,131.415295 147.70527,131.282761 C148.701501,131.05842 149.829583,130.833295 151.064138,130.622843 C154.833799,129.980236 158.736144,129.614264 162.524059,129.666165 C166.140587,129.715718 169.678986,130.067807 172.998327,130.623514 C174.254067,130.833743 175.387707,131.058451 176.378024,131.282196 C176.961303,131.413977 177.359706,131.513976 177.552154,131.566664 L179.963418,132.22682 L181.28373,127.404291 L178.872465,126.744136 C178.609451,126.672128 178.138452,126.553908 177.479911,126.405122 C176.400528,126.161255 175.175094,125.918352 173.823911,125.692144 C170.26761,125.096766 166.48023,124.719902 162.592561,124.666635 C158.469593,124.610143 154.272953,125.003714 150.223918,125.693945 C148.899695,125.919683 147.685948,126.161904 146.60683,126.40491 C145.950164,126.552784 145.477627,126.66994 145.2136,126.740763 L142.798963,127.388473 L144.094383,132.217747 L146.50902,131.570037 Z"/><path id="Stroke-10" fill-rule="nonzero" d="M87.7118601,88.5166411 L99.7972998,99.813864 L68.0152006,131.924998 L67.9215377,132.007051 C67.4974185,132.3786 66.7532721,132.992195 65.7386064,133.768056 C64.06376,135.048721 62.2208857,136.327752 60.2560645,137.525521 C56.0066575,140.115989 51.7788968,141.975521 47.6913515,142.776144 C45.6728094,143.171513 43.7195818,143.29832 41.842886,143.122061 L32.8684357,142.279065 C20.3496821,141.103324 11.1427843,129.987725 12.3185476,117.469095 L18.0940487,55.9800839 C19.2699225,43.4615358 30.3855114,34.254993 42.9044339,35.4307395 L51.8788842,36.2737348 C64.397663,37.4494788 73.6045505,48.5651095 72.4286719,61.083709 L69.3845726,93.4924064 L87.7118601,88.5166411 Z M61.4706472,102.894394 L65.4593487,60.4290839 C66.273681,51.7595665 59.8940328,44.0573095 51.224286,43.2430605 L42.2498387,42.4000655 C33.5799421,41.5858101 25.8777005,47.9652306 25.0633722,56.6347052 L19.2878743,118.123683 C18.4736207,126.793233 24.8532953,134.495491 33.5230339,135.309739 L42.4974903,136.152735 C43.6677463,136.262646 44.9551679,136.179064 46.3458364,135.906676 C49.4981748,135.289231 53.0102511,133.744485 56.6124619,131.548552 C58.3527378,130.487667 59.9966679,129.346712 61.4866642,128.207392 C62.0055049,127.810662 62.4662319,127.444023 62.8620107,127.117679 C63.020929,126.98664 63.1423448,126.884586 63.2240208,126.814909 L89.75532,100.008936 L85.7813598,96.2941589 L61.4706472,102.894394 Z"/><polygon id="Stroke-11" fill-rule="nonzero" points="15.944 129.62 0 234.871 10.225 236.42 26.169 131.169"/><polygon id="Stroke-12" fill-rule="nonzero" points="60.244 235.873 63.66 132.932 53.323 132.589 49.907 235.53"/><path id="Stroke-13" fill-rule="nonzero" d="M240.362101,89.0856523 L228.276233,100.382854 L260.05829,132.492966 L260.151876,132.574959 C260.575971,132.946515 261.320072,133.560122 262.334676,134.335996 C264.009422,135.616682 265.85219,136.895733 267.816905,138.093522 C272.066402,140.684228 276.294272,142.543875 280.381949,143.344418 C282.400684,143.739774 284.354097,143.866484 286.230919,143.690034 L295.205231,142.848098 C307.724344,141.671108 316.930712,130.555474 315.754974,118.037117 L309.979974,56.5491176 C308.804197,44.030334 297.688306,34.8230223 285.169057,35.9987328 L276.194968,36.8417412 C263.675484,38.0186553 254.468889,49.1341225 255.644646,61.6526835 L258.689265,94.0613839 L240.362101,89.0856523 Z M238.318387,100.577946 L242.292519,96.8631477 L266.603355,103.463416 L262.613967,60.9980357 C261.799713,52.3284803 268.179333,44.6261261 276.849889,43.8110366 L285.823652,42.9680588 C294.493762,42.1538295 302.196371,48.5339144 303.010646,57.2036835 L308.785645,118.691682 C309.599895,127.361187 303.220414,135.063679 294.5507,135.878766 L285.576389,136.720702 C284.405442,136.830789 283.118001,136.747278 281.727294,136.474917 C278.574988,135.857559 275.062907,134.312756 271.460695,132.116667 C269.720533,131.055777 268.076715,129.914815 266.586824,128.775489 C266.068021,128.378757 265.607327,128.012116 265.211578,127.68577 C265.05263,127.554697 264.931202,127.452624 264.849533,127.382946 L238.318387,100.577946 Z"/><polygon id="Stroke-14" fill-rule="nonzero" points="301.904 131.738 317.848 236.989 328.074 235.44 312.13 130.189"/><polygon id="Stroke-15" fill-rule="nonzero" points="278.166 236.098 274.75 133.158 264.414 133.501 267.83 236.441"/><path id="Stroke-16" fill-rule="nonzero" d="M136.284366,172.983801 C114.830412,179.027431 102.487557,183.206064 89.8502513,189.378243 C71.767118,198.210215 59.2530411,209.054023 52.9943699,223.038131 L51.4288011,226.536171 L58.4248813,229.667309 L59.99045,226.169269 C65.398543,214.085656 76.5982396,204.380797 93.2140436,196.265482 C105.844555,190.096621 118.384328,185.933879 141.154556,179.578725 L143.964263,178.794538 L143.899758,153.923073 L136.234983,153.942952 L136.284366,172.983801 Z"/><path id="Stroke-17" fill-rule="nonzero" d="M191.252636,153.942952 L183.587862,153.923073 L183.523357,178.794538 L186.333064,179.578725 C209.103433,185.933918 221.64314,190.09663 234.273667,196.265484 C250.889519,204.380802 262.08922,214.085658 267.497265,226.169258 L269.062824,229.667303 L276.058913,226.536186 L274.493355,223.038142 C268.234731,209.054029 255.720642,198.21022 237.637453,189.378241 C225.00013,183.206069 212.657336,179.027466 191.203253,172.983801 L191.252636,153.942952 Z"/></g></g></svg>