<svg xmlns="http://www.w3.org/2000/svg" xmlns:xlink="http://www.w3.org/1999/xlink" width="339" height="306" version="1.1" viewBox="0 0 339 306"><title>dancer</title><desc>Created with Sketch.</desc><g id="Page-1" fill="none" fill-rule="evenodd" stroke="none" stroke-width="1"><g id="Group-8" fill="#FFF" transform="translate(11.015791, 19.822214)"><path id="Stroke-18" fill-rule="nonzero" d="M125.44644,166.872887 C152.862178,169.447054 182.687909,145.682978 185.639127,116.130433 L192.422311,63.319496 L192.434504,63.2122781 C195.506897,32.1918133 172.81438,4.51860219 141.790158,1.45043721 C110.773495,-1.61910969 83.0952498,21.0753947 80.033789,52.0935582 L80.0224707,52.2363047 L76.8366718,105.386217 C73.9488238,135.092994 98.1935484,164.312802 125.44644,166.872887 Z M178.256107,115.236076 L178.24379,115.344546 C175.731845,140.794236 149.55206,161.666745 126.141815,159.468669 C102.960406,157.291051 81.7158256,131.665387 84.2446288,106.044013 L84.2559472,105.901267 L87.4415856,52.7540325 C90.134208,25.8601977 114.152101,6.18838131 141.058008,8.85110957 C167.977446,11.5133286 187.675697,35.5153868 185.039108,62.4265643 L178.256107,115.236076 Z M87.4459472,52.681267 L87.4346288,52.8240135 C87.4369314,52.8006845 87.4392499,52.7773609 87.4415846,52.7540428 L87.4459472,52.681267 Z"/><path id="Stroke-19" fill-rule="nonzero" d="M101.946674,82.5802036 C102.019426,82.4206621 102.204019,82.0768615 102.504098,81.6114822 C103.020024,80.8113531 103.659769,80.0074933 104.423931,79.2600708 C106.847036,76.8900482 109.917191,75.6174494 113.810477,75.9645616 C116.468573,76.2014282 118.453207,77.659145 119.932151,80.0507637 C120.529813,81.0172501 120.997742,82.0674914 121.344938,83.1185908 C121.550662,83.7413972 121.666975,84.2103804 121.710248,84.4426777 L122.08914,86.4766381 L126.157061,85.7188544 L125.778169,83.684894 C125.70266,83.2795436 125.542221,82.6326432 125.274036,81.8207422 C124.831384,80.4806626 124.233936,79.139725 123.451504,77.8744443 C121.339429,74.4589797 118.274926,72.2080981 114.177848,71.8430018 C108.996679,71.3810663 104.770709,73.1327577 101.530575,76.3019115 C100.532025,77.2785868 99.7016543,78.3219744 99.0264681,79.3690929 C98.6118791,80.012062 98.3336211,80.5303102 98.1817443,80.8633681 L97.3233266,82.7458328 L101.088256,84.4626682 L101.946674,82.5802036 Z"/><path id="Fill-20" d="M112.854209,77.3487858 C115.364209,77.5977858 117.204209,79.8397858 116.954209,82.3527858 C116.714209,84.8667858 114.464209,86.7047858 111.954209,86.4567858 C109.444209,86.2077858 107.604209,83.9657858 107.854209,81.4517858 C108.104209,78.9387858 110.344209,77.1007858 112.854209,77.3487858 Z"/><polygon id="Stroke-21" fill-rule="nonzero" points="99.625 67.544 127.693 67.273 127.653 63.135 99.585 63.406"/><path id="Stroke-22" fill-rule="nonzero" d="M144.417489,85.9994123 C144.490007,85.8399826 144.67414,85.4962996 144.973594,85.0310475 C145.488461,84.2311127 146.1271,83.4274481 146.890166,82.6802182 C149.309833,80.3107668 152.37753,79.0384796 156.270477,79.3855616 C158.928573,79.6224282 160.913207,81.080145 162.392151,83.4717637 C162.989813,84.4382501 163.457742,85.4884914 163.804938,86.5395908 C164.010662,87.1623972 164.126975,87.6313804 164.170248,87.8636777 L164.54914,89.8976381 L168.617061,89.1398544 L168.238169,87.105894 C168.16266,86.7005436 168.002221,86.0536432 167.734036,85.2417422 C167.291384,83.9016626 166.693936,82.560725 165.911504,81.2954443 C163.799429,77.8799797 160.734926,75.6290981 156.637848,75.2640018 C151.45634,74.8020361 147.231968,76.5540391 143.995068,79.7237642 C142.997497,80.7006319 142.168205,81.7442148 141.494116,82.7915275 C141.080195,83.4346239 140.802474,83.9529897 140.650929,84.2861593 L139.794302,86.1694397 L143.560863,87.8826928 L144.417489,85.9994123 Z"/><path id="Fill-23" d="M154.654209,82.2637858 C157.164209,82.5117858 159.004209,84.7537858 158.754209,87.2677858 C158.504209,89.7807858 156.264209,91.6187858 153.754209,91.3707858 C151.234209,91.1217858 149.394209,88.8797858 149.644209,86.3667858 C149.894209,83.8527858 152.134209,82.0147858 154.654209,82.2637858 Z"/><polygon id="Stroke-24" fill-rule="nonzero" points="170.264 69.618 142.794 63.852 141.944 67.902 169.414 73.668"/><polygon id="Stroke-25" fill-rule="nonzero" points="123.906 108.689 139.093 110.191 139.602 105.044 124.415 103.542"/><path id="Stroke-26" fill-rule="nonzero" d="M108.917673,128.279228 C109.302121,128.495685 109.98733,128.853581 110.936105,129.305559 C112.497087,130.049182 114.245533,130.7908 116.145068,131.482724 C120.437536,133.046299 124.8653,134.129889 129.276617,134.515299 C134.624804,134.982115 139.85006,134.527437 144.673147,133.484571 C146.790048,133.026847 148.362785,132.562938 149.262336,132.238526 L151.614076,131.390398 L149.917821,126.686919 L147.566081,127.535046 C147.41136,127.590845 147.074703,127.701681 146.573128,127.84963 C145.713474,128.103201 144.722193,128.35842 143.616448,128.597508 C139.251061,129.541408 134.514991,129.953519 129.711595,129.534255 C125.778048,129.190587 121.765276,128.208557 117.856371,126.784699 C116.113166,126.149719 114.509833,125.469652 113.086475,124.791591 C112.592454,124.556249 112.157825,124.338908 111.787518,124.14549 C111.573042,124.033466 111.432487,123.957107 111.370745,123.922344 L109.192303,122.695808 L106.739231,127.052691 L108.917673,128.279228 Z"/><path id="Stroke-27" fill-rule="nonzero" d="M281.649689,64.3742778 L273.874701,66.2583059 L297.586715,164.1128 C297.606652,164.195076 297.629196,164.276698 297.654313,164.357543 C297.667286,164.3993 297.699581,164.507458 297.748477,164.678487 C297.834835,164.980549 297.932397,165.338556 298.038448,165.748962 C298.346195,166.939901 298.655714,168.298919 298.945431,169.797359 C300.357886,177.102673 300.769612,184.671122 299.595007,191.627018 C297.350724,204.917441 289.78782,213.638889 274.823257,216.459711 L270.892483,217.200663 L272.374386,225.062212 L276.30516,224.321261 C294.771105,220.840428 304.710722,209.378184 307.483328,192.959076 C308.840272,184.923388 308.379108,176.446146 306.799966,168.278714 C306.477845,166.612679 306.131821,165.093376 305.784025,163.747453 C305.595748,163.018845 305.440718,162.468363 305.334031,162.114575 L281.649689,64.3742778 Z"/><path id="Stroke-28" fill-rule="nonzero" d="M252.10893,180.250084 C251.511542,176.694141 250.454472,162.284075 249.114943,140.246744 C248.873795,136.279484 248.625334,132.096165 248.370706,127.722553 C247.684202,115.930842 246.983599,103.295409 246.306331,90.6597723 C246.069279,86.2371388 245.852081,82.1304555 245.65941,78.4450978 C245.591982,77.1553444 245.532439,76.0104261 245.481364,75.0235133 C245.453132,74.4775253 245.453132,74.4775253 245.434829,74.1224531 L245.418958,73.8138949 L245.214067,69.8191459 L237.224569,70.2289277 L237.42946,74.2236767 L237.445423,74.534016 C237.463774,74.8900174 237.463774,74.8900174 237.492055,75.4369759 C237.543202,76.4252676 237.602818,77.5715864 237.670321,78.8627669 C237.863168,82.5515059 238.080551,86.6616732 238.317799,91.0879557 C238.995674,103.734936 239.696929,116.38212 240.384229,128.187519 C240.639238,132.567675 240.8881,136.75775 241.129681,140.732124 C242.500817,163.289448 243.54979,177.589123 244.219488,181.575487 L244.882189,185.520209 L252.771632,184.194806 L252.10893,180.250084 Z"/><path id="Stroke-29" fill-rule="nonzero" d="M272.067398,9.58108584 L279.220845,25.9273638 C279.241132,26.1562031 279.263042,26.4119354 279.286253,26.6931512 C279.374531,27.7626807 279.462975,28.97203 279.545602,30.2949199 C279.886554,35.7537569 280.025165,41.3423457 279.846213,46.530729 C279.569101,54.5650596 278.519485,60.6216191 276.834524,63.4508159 C274.096807,64.9841071 268.426749,66.2452442 260.950782,67.0630497 C256.65333,67.5331534 252.029626,67.8365037 247.401227,68.004926 C245.77576,68.0640749 244.265544,68.1020486 242.909953,68.1230654 C242.756964,68.1254373 242.609505,68.1275342 242.467741,68.1293741 L215.92026,45.8072756 L217.629546,24.96689 L254.714173,24.8759838 L255.010596,31.2255691 L231.565436,38.2663438 L233.578767,44.9705588 L262.257822,36.3580025 L261.394245,17.8595878 L224.509505,17.950004 L225.567563,7.31557167 L272.067398,9.58108584 Z M211.178872,17.9826816 L208.648157,48.8382961 L239.927785,75.1393577 L241.203034,75.1397856 L241.203901,75.1397858 C241.548986,75.1398438 242.166745,75.1354291 243.018466,75.1222242 C244.42104,75.1004791 245.979654,75.0612884 247.65578,75.0002961 C252.440857,74.8261725 257.226818,74.5121769 261.71198,74.0215393 C270.836735,73.0233709 277.529332,71.4636621 281.284279,68.9254626 L281.78762,68.5852234 L282.146849,68.0952545 C285.147581,64.0024226 286.499212,56.7120541 286.842053,46.772022 C287.02983,41.3277765 286.885906,35.5249964 286.531987,29.8585585 C286.446357,28.4875746 286.354527,27.2319326 286.26253,26.117339 C286.230175,25.7253384 286.200045,25.3783501 286.172892,25.0795985 C286.156326,24.8973288 286.144246,24.7697937 286.137404,24.7002227 L286.083092,24.1479688 L276.74102,2.80048583 L219.260855,5.68434189e-14 L217.473227,17.9672522 L211.178872,17.9826816 Z"/><path id="Stroke-30" fill-rule="nonzero" d="M157.357601,252.981298 L56.7716112,267.778196 C56.7424562,267.78142 56.4984274,267.810601 56.1292564,267.849981 C55.4911955,267.918044 54.7503739,267.986695 53.9182618,268.05112 C46.9182164,268.593083 39.293555,268.474761 32.2367517,267.251162 C18.3305553,264.839925 10.6369735,258.960564 10.3614752,248.474376 C9.97837294,233.877671 14.997202,225.9151 24.3188223,222.117193 C31.0777769,219.363393 38.0991869,219.039219 48.791891,219.873662 C54.5971675,220.32675 71.7811918,221.459368 96.9843378,223.0678 C97.9125741,223.127027 97.9125741,223.127027 98.8411545,223.186233 C110.232017,223.912381 122.436119,224.683307 134.640165,225.449522 C138.911539,225.717694 142.877826,225.966123 146.43735,226.188622 C147.683216,226.266499 148.789258,226.335572 149.742765,226.395069 C150.709056,226.455344 150.709056,226.455344 150.912669,226.468029 L156.073712,226.789569 L156.716792,216.467482 L151.555749,216.145942 C151.352611,216.133287 151.352611,216.133287 150.386837,216.073044 C149.433701,216.01357 148.328036,215.94452 147.082555,215.866668 C143.523943,215.644226 139.558594,215.395855 135.288204,215.127745 C123.087215,214.361722 110.886281,213.590996 99.4991094,212.865084 C98.5708854,212.805901 98.5708854,212.805901 97.6430171,212.746696 C72.5125894,211.142905 55.3289675,210.010314 49.5965734,209.562914 C37.3581701,208.607847 29.1346796,208.987521 20.4165955,212.539529 C7.04500688,217.987513 -0.471356993,229.912523 0.0229390172,248.745857 C0.456552177,265.250312 12.2826106,274.287671 30.4698688,277.441213 C38.5038317,278.834246 46.9323208,278.965041 54.7165872,278.362362 C56.3265728,278.237712 57.516397,278.110791 58.1984708,278.021088 L153.746807,263.965876 L158.862797,263.213278 L157.357601,252.981298 Z"/><path id="Stroke-31" fill-rule="nonzero" d="M98.8553877,174.028902 C75.1611075,180.685861 62.2359727,184.916332 48.0198426,191.379477 C27.0539531,200.911297 12.8183357,212.121535 6.56916425,226.084527 L5.0036058,229.582572 L11.9996951,232.713689 L13.5652536,229.215644 C18.8825204,217.334876 31.767895,207.187925 51.1920752,198.35702 C65.4823397,191.86017 78.6006871,187.638047 103.724579,180.625076 L106.533036,179.841137 L106.47814,154.970936 L98.8133592,154.987854 L98.8553877,174.028902 Z"/><polygon id="Stroke-32" fill-rule="nonzero" points="98.813 154.988 98.87 180.775 106.535 180.758 106.478 154.971"/><path id="Stroke-33" fill-rule="nonzero" d="M153.827168,154.989974 L146.162397,154.968827 L146.091552,180.646076 L149.812554,180.764254 C187.643001,181.965744 211.594499,178.587198 247.623025,168.335878 L251.309117,167.287061 L249.211485,159.914878 L245.525393,160.963694 C211.418503,170.668244 188.633877,174.048343 153.776905,173.207523 L153.827168,154.989974 Z"/><path id="Stroke-34" fill-rule="nonzero" d="M156.826966,258.621733 C157.454467,258.080563 158.072705,257.513994 158.675697,256.922655 C163.154844,252.530065 165.950634,247.666891 166.043678,242.326253 C166.140123,236.600059 164.3142,231.136463 161.244568,226.098839 C160.660918,225.141002 160.054071,224.236616 159.436323,223.38895 L183.075119,211.245042 L207.98324,227.490443 L211.964755,244.638553 L195.511242,249.403512 C198.113691,245.474153 200.098398,240.968388 201.362003,235.854926 L202.201643,232.457132 L195.406055,230.777852 L194.566415,234.175646 C192.182631,243.822166 186.840537,250.772912 179.35823,255.555138 C175.696867,257.895253 171.752138,259.562339 167.806856,260.66015 C166.429651,261.04337 165.156133,261.327033 164.022622,261.525569 C163.859489,261.554142 163.709387,261.579296 163.572874,261.601262 L156.826966,258.621733 Z M220.283663,249.517019 L214.165178,223.165129 L183.493299,203.160529 L148.081812,221.352396 L151.496534,224.747338 C151.527624,224.778247 151.617468,224.871446 151.757615,225.023733 C152.009891,225.297862 152.296017,225.625045 152.607561,226.001964 C153.511515,227.095608 154.420084,228.351571 155.266893,229.741283 C157.701629,233.736969 159.116069,237.969308 159.044705,242.206344 C158.98991,245.351472 157.067462,248.695502 153.774475,251.924853 C152.527507,253.147723 151.179692,254.259298 149.833006,255.229927 C149.363915,255.568026 148.931092,255.862678 148.547206,256.110857 C148.328545,256.25222 148.183249,256.341836 148.123914,256.376891 L142.261034,259.840644 L162.490556,268.775606 L163.404953,268.68616 C163.774582,268.650003 164.394623,268.566974 165.230295,268.420605 C166.582182,268.183821 168.078106,267.850619 169.683378,267.403937 C174.259457,266.1306 178.83609,264.196466 183.127998,261.453345 C184.126294,260.815296 185.09381,260.143425 186.028914,259.437238 L220.283663,249.517019 Z"/></g></g></svg>