<svg xmlns="http://www.w3.org/2000/svg" xmlns:xlink="http://www.w3.org/1999/xlink" width="339" height="306" version="1.1" viewBox="0 0 339 306"><title>elbows</title><desc>Created with Sketch.</desc><g id="Page-1" fill="none" fill-rule="evenodd" stroke="none" stroke-width="1"><g id="Group-9" fill="#FFF" transform="translate(-0.220285, 19.822245)"><path id="Stroke-35" fill-rule="nonzero" d="M109.455168,112.119981 L109.451907,111.976525 C109.451991,112.000923 109.452092,112.025318 109.452212,112.049712 L109.455168,112.119981 Z M164.060625,168.277031 C191.590707,168.052296 218.846908,141.380993 218.788806,111.680232 L220.167438,58.4530325 L220.168663,58.3439848 C220.061603,27.1704149 194.679322,1.94975341 163.508282,2.05037422 C132.336543,2.14992681 107.115551,27.5342016 107.211903,58.7072479 L107.215168,58.8519811 L109.452212,112.049683 C109.598794,141.894865 136.691483,168.50036 164.060625,168.277031 Z M211.353131,111.540477 L211.351903,111.648248 C211.430954,137.223901 187.507355,160.648581 163.999932,160.840479 C140.719749,161.030442 116.977077,137.695311 116.888663,111.950985 L116.885401,111.807529 L114.648498,58.6131607 C114.60337,31.5792585 136.491185,9.57349614 163.53216,9.48713588 C190.578411,9.39982999 212.609872,31.2732256 212.731694,58.3159774 L211.353131,111.540477 Z M114.645401,58.5395286 L114.648667,58.6842618 C114.648594,58.6605611 114.648537,58.6368642 114.648498,58.6131711 L114.645401,58.5395286 Z"/><path id="Stroke-36" fill-rule="nonzero" d="M132.12054,86.8085356 C132.184885,86.61794 132.353551,86.2130985 132.638339,85.6675164 C133.125993,84.7332921 133.753557,83.7959284 134.528714,82.9257147 C136.677068,80.5139104 139.514529,79.0706812 143.246972,79.0225327 C146.021563,78.986899 148.208441,80.3401921 149.948085,82.7295933 C150.579489,83.5968265 151.100813,84.5371477 151.513148,85.4771762 C151.756675,86.0323632 151.905067,86.4492593 151.965303,86.6541932 L152.548741,88.6391752 L156.518705,87.4722986 L155.935267,85.4873165 C155.828004,85.1223843 155.621423,84.5420149 155.302527,83.8150033 C154.777489,82.6180342 154.114038,81.4213578 153.29329,80.2940598 C150.828203,76.9082642 147.469887,74.830057 143.193716,74.8849754 C138.229857,74.9490092 134.322105,76.9366243 131.438891,80.1734049 C130.422474,81.314464 129.607311,82.5320355 128.970114,83.7527463 C128.579991,84.5001253 128.329686,85.1009203 128.20003,85.4849741 L127.538249,87.4452293 L131.458759,88.7687908 L132.12054,86.8085356 Z"/><path id="Fill-37" d="M142.430285,80.4967548 C144.960285,80.4887548 147.020285,82.5327548 147.020285,85.0587548 C147.030285,87.5837548 144.990285,89.6407548 142.460285,89.6487548 C139.940285,89.6567548 137.880285,87.6127548 137.870285,85.0877548 C137.860285,82.5627548 139.910285,80.5057548 142.430285,80.4967548 Z"/><polygon id="Stroke-38" fill-rule="nonzero" points="128.284 72.087 156.177 68.964 155.716 64.851 127.824 67.975"/><path id="Stroke-39" fill-rule="nonzero" d="M174.71054,85.8955356 C174.774885,85.70494 174.943551,85.3000985 175.228339,84.7545164 C175.715993,83.8202921 176.343557,82.8829284 177.118714,82.0127147 C179.267068,79.6009104 182.104529,78.1576812 185.836972,78.1095327 C188.611563,78.073899 190.798441,79.4271921 192.538085,81.8165933 C193.169489,82.6838265 193.690813,83.6241477 194.103148,84.5641762 C194.346675,85.1193632 194.495067,85.5362593 194.555303,85.7411932 L195.138741,87.7261752 L199.108705,86.5592986 L198.525267,84.5743165 C198.418004,84.2093843 198.211423,83.6290149 197.892527,82.9020033 C197.367489,81.7050342 196.704038,80.5083578 195.88329,79.3810598 C193.418203,75.9952642 190.059887,73.917057 185.783716,73.9719754 C180.819857,74.0360092 176.912105,76.0236243 174.028891,79.2604049 C173.012474,80.401464 172.197311,81.6190355 171.560114,82.8397463 C171.169991,83.5871253 170.919686,84.1879203 170.79003,84.5719741 L170.128249,86.5322293 L174.048759,87.8557908 L174.71054,85.8955356 Z"/><path id="Fill-40" d="M184.510285,81.1377548 C187.040285,81.1297548 189.100285,83.1737548 189.100285,85.6987548 C189.110285,88.2247548 187.070285,90.2817548 184.540285,90.2897548 C182.020285,90.2977548 179.960285,88.2537548 179.950285,85.7287548 C179.940285,83.2027548 181.990285,81.1457548 184.510285,81.1377548 Z"/><polygon id="Stroke-41" fill-rule="nonzero" points="198.765 66.971 170.85 64.027 170.416 68.142 198.331 71.086"/><polygon id="Stroke-42" fill-rule="nonzero" points="156.612 110.551 171.875 110.503 171.858 105.33 156.596 105.379"/><path id="Stroke-43" fill-rule="nonzero" d="M143.691321,131.564495 C144.017289,131.706583 144.596394,131.940035 145.399003,132.234106 C146.71632,132.716764 148.196619,133.19778 149.810733,133.646187 C154.646737,134.989648 159.656005,135.770276 164.587186,135.697482 C169.343834,135.627265 173.962928,134.841177 178.285697,133.574799 C179.875541,133.109045 181.316022,132.608903 182.584495,132.106454 C183.360892,131.798918 183.918202,131.553473 184.233469,131.401911 L186.486625,130.318727 L184.320257,125.812415 L182.067101,126.895599 C182.025841,126.915434 181.9222,126.963217 181.75921,127.034999 C181.472918,127.161085 181.133217,127.303349 180.743158,127.457854 C179.613033,127.905503 178.317095,128.355459 176.879999,128.776464 C172.964723,129.923465 168.78378,130.634988 164.513384,130.698027 C160.110723,130.763019 155.558728,130.053651 151.149069,128.82863 C149.669145,128.417501 148.315331,127.977586 147.11915,127.539312 C146.70478,127.387489 146.341224,127.247412 146.032375,127.122907 C145.854394,127.051159 145.738728,127.002583 145.689248,126.981015 L143.397508,125.982051 L141.399581,130.565531 L143.691321,131.564495 Z"/><path id="Stroke-44" fill-rule="nonzero" d="M326.797721,166.387403 C326.971745,167.368994 327.146966,168.491043 327.311108,169.730006 C328.128219,175.89769 328.354619,182.303511 327.642864,188.180766 C326.118251,200.770113 320.910219,207.722855 310.479811,208.228675 C294.807512,208.98853 287.919189,203.16685 284.835025,191.135751 C284.006811,187.90495 283.897109,187.170749 282.875264,179.176159 C282.71221,177.900477 282.578012,176.948881 282.430982,176.066668 C281.899486,172.902626 281.067833,161.074956 280.070029,143.084369 C279.78254,137.900902 279.483773,132.257236 279.176249,126.224469 C278.602866,114.976318 278.026247,102.922592 277.474833,90.8685668 C277.281828,86.6494228 277.105764,82.7317163 276.950192,79.2160124 C276.895749,77.9856946 276.847759,76.8935715 276.806666,75.9522118 C276.783961,75.4314782 276.783961,75.4314782 276.76926,75.0929058 L276.756532,74.7989349 L276.533712,69.6326878 L266.201218,70.0783276 L266.424038,75.2445748 L266.436879,75.5411558 C266.451639,75.8810898 266.451639,75.8810898 266.474406,76.4032458 C266.515588,77.3466262 266.563667,78.4408016 266.618202,79.6732108 C266.773994,83.1938701 266.950287,87.1166823 267.143538,91.341174 C267.695712,103.411822 268.273154,115.48277 268.847559,126.750981 C269.155827,132.798328 269.455397,138.457151 269.743799,143.657089 C270.776399,162.275055 271.603712,174.041007 272.230684,177.773393 C272.350828,178.49431 272.468775,179.330665 272.616624,180.487388 C272.676911,180.959058 272.916573,182.887037 272.977644,183.367332 C273.13248,184.585042 273.269062,185.59187 273.417984,186.588561 C273.806039,189.185712 274.247817,191.48411 274.816859,193.703902 C279.055992,210.240447 290.096312,219.571197 310.980704,218.558638 C327.378761,217.763419 335.847068,206.458199 337.909949,189.424145 C338.741166,182.560449 338.485673,175.331497 337.563625,168.371726 C337.245822,165.972902 336.923599,164.155382 336.6975,163.095712 L336.665772,162.956461 L312.667478,63.9629745 L302.616504,66.3995613 L326.596098,165.315912 C326.636802,165.512811 326.706975,165.875544 326.797721,166.387403 Z"/><path id="Stroke-45" fill-rule="nonzero" d="M302.232396,10.5840024 L309.377074,26.9300537 C309.397567,27.160392 309.419711,27.4179452 309.443175,27.7012783 C309.532017,28.7740421 309.621026,29.9869063 309.70418,31.3134647 C310.04611,36.7683284 310.185863,42.3514104 310.008445,47.5346116 C309.733447,55.568596 308.685155,61.624885 307.000576,64.4537891 C304.262502,65.9871927 298.590393,67.2485527 291.11147,68.0665724 C286.811856,68.5368499 282.185821,68.8403254 277.55528,69.008838 C275.929403,69.0680062 274.418955,69.1059958 273.063359,69.1270267 C272.911437,69.1293836 272.76498,69.1314692 272.62415,69.133301 L246.08565,46.8101175 L247.786857,25.9699315 L284.880258,25.8798742 L285.176651,32.2283136 L261.721702,39.2699603 L263.73449,45.9743381 L292.423918,37.361196 L291.560312,18.8636354 L254.675559,18.9531861 L255.733639,8.31854068 L302.232396,10.5840024 Z M241.333713,18.9855782 L238.81492,49.8413922 L270.083534,76.1433695 L271.359228,76.1437547 L271.359983,76.1437549 C271.703857,76.1438068 272.320763,76.1393898 273.171945,76.1261844 C274.574507,76.1044249 276.133334,76.0652186 277.809853,76.0042074 C282.597032,75.8299945 287.385282,75.5158774 291.872568,75.025073 C301.000636,74.0266752 307.695133,72.4668172 311.450355,69.9284317 L311.953696,69.5881924 L312.312925,69.0982235 C315.313913,65.005043 316.664096,57.7144195 317.004348,47.7740773 C317.19052,42.3351397 317.045406,36.5379284 316.690468,30.8755391 C316.604292,29.5007608 316.511876,28.241487 316.419294,27.123547 C316.386733,26.7303731 316.356411,26.3823298 316.329086,26.0826571 C316.312415,25.8998294 316.300259,25.7719015 316.293375,25.702118 L316.239024,25.1512261 L306.908173,3.80350733 L249.426931,1.00296901 L247.639298,18.9702691 L241.333713,18.9855782 Z"/><path id="Stroke-46" fill-rule="nonzero" d="M191.993244,156.992943 L184.328473,156.971796 L184.257628,182.649045 L187.97863,182.767223 C212.607806,183.549443 228.911656,182.266881 246.076006,178.509316 C253.944644,176.786738 258.043317,175.67192 276.779304,170.339789 L280.465339,169.290769 L278.367299,161.918701 L274.681265,162.967721 C256.127168,168.248087 252.08514,169.347498 244.436869,171.021833 C228.795171,174.446065 213.899677,175.73315 191.942982,175.210017 L191.993244,156.992943 Z"/><path id="Stroke-47" fill-rule="nonzero" d="M26.2131065,62.9599652 L2.21480082,161.952449 C1.92962565,163.097261 1.51216488,165.103436 1.10011575,167.73448 C0.0261826475,174.591828 -0.355009316,181.66039 0.379024405,188.373769 C2.22585876,205.26468 10.8980016,216.539424 27.8519004,217.552301 C48.7598641,218.80132 59.8221285,209.446186 64.069892,192.763508 C64.6374787,190.534367 65.0787937,188.226096 65.4675893,185.615741 C65.6165226,184.61581 65.75315,183.606763 65.9088536,182.381578 C65.9664162,181.928636 66.2082286,179.984817 66.2711837,179.493207 C66.4195635,178.334525 66.5383598,177.494924 66.6602863,176.767005 C67.2861475,173.02088 68.116305,161.17602 69.1543068,142.437843 C69.4390863,137.296958 69.7347964,131.711006 70.0390515,125.747611 C70.6139496,114.479614 71.1922361,102.408879 71.7454638,90.3384404 C71.9390828,86.1140202 72.1157446,82.1912748 72.2718874,78.6706772 C72.3265452,77.438291 72.3747368,76.3441369 72.4160167,75.4007758 C72.4388388,74.8786318 72.4388388,74.8786318 72.453635,74.5387074 L72.4665075,74.2421407 L72.6898933,69.075918 L62.357448,68.6291463 L62.1340621,73.795369 L62.1213019,74.0893473 C62.1065645,74.4279214 62.1065645,74.4279214 62.0838041,74.9486547 C62.0426118,75.8900119 61.9945099,76.9821307 61.939944,78.2124429 C61.7840192,81.7281262 61.6075854,85.6458083 61.4142095,89.8649252 C60.8617374,101.918879 60.2842691,113.972535 59.7103859,125.220638 C59.4068566,131.169809 59.1119292,136.740975 58.8280383,141.865819 C57.8246506,159.979136 56.9900305,171.887671 56.4599256,175.060644 C56.3120648,175.943392 56.1766987,176.9001 56.0128554,178.179536 C54.9682455,186.336788 54.8753077,186.960768 54.0475736,190.211613 C50.9550547,202.357181 44.0911149,208.161876 28.4686479,207.228607 C17.3378375,206.563619 12.0149579,199.643287 10.6598533,187.249674 C10.0387422,181.56907 10.3733439,175.364446 11.3176725,169.334657 C11.5295451,167.981794 11.7558104,166.751475 11.98058,165.671308 C12.1115415,165.041951 12.2093957,164.61586 12.2581039,164.420255 L35.0457688,70.4220605 L36.2640745,65.3965765 L26.2131065,62.9599652 Z"/><path id="Stroke-48" fill-rule="nonzero" d="M47.3302491,17.8595568 L46.4666721,36.3579715 L75.1457268,44.9705278 L77.1590578,38.2663128 L53.7138975,31.2255382 L54.0103205,24.8759528 L91.0949476,24.966859 L92.8042334,45.8072446 L66.2567527,68.1293431 C66.1149883,68.1275033 65.9675296,68.1254063 65.8145408,68.1230344 C64.4589502,68.1020176 62.9487333,68.0640439 61.3232671,68.004895 C56.6948677,67.8364727 52.0711635,67.5331224 47.7737119,67.0630187 C40.2977448,66.2452132 34.6276867,64.9840761 31.8899701,63.4507849 C30.2050083,60.6215881 29.1553923,54.5650286 28.8782808,46.530698 C28.6993286,41.3423147 28.8379397,35.7537259 29.1788922,30.2948889 C29.2615184,28.971999 29.3499628,27.7626497 29.4382403,26.6931203 C29.4614781,26.4115814 29.4834121,26.1555847 29.5037183,25.9265444 L36.6481642,9.58102311 L83.1569276,7.31550969 L84.2149892,17.949973 L47.3302491,17.8595568 Z M89.463642,-5.68434189e-14 L31.9724054,2.80048658 L22.6413239,24.1487328 L22.5870894,24.7001917 C22.5802472,24.7697627 22.5681672,24.8972978 22.5516013,25.0795675 C22.5244487,25.3783191 22.4943185,25.7253074 22.4619633,26.117308 C22.3699663,27.2319016 22.2781363,28.4875436 22.1925063,29.8585275 C21.8385873,35.5249654 21.6946637,41.3277455 21.8824407,46.771991 C22.2252817,56.7120231 23.5769124,64.0023916 26.5776443,68.0952235 L26.9368736,68.5851924 L27.4402148,68.9254317 C31.1951614,71.4636311 37.8877592,73.0233399 47.012514,74.0215083 C51.4976762,74.5121459 56.2836363,74.8261415 61.0687134,75.0002651 C62.7448395,75.0612574 64.3034535,75.1004481 65.7060275,75.1221933 C66.557749,75.1353981 67.1755076,75.1398128 67.5205926,75.1397549 L68.7967088,75.1393267 L100.076336,48.8382651 L97.545622,17.9826507 L91.2512664,17.9672212 L89.463642,-5.68434189e-14 Z"/><path id="Stroke-49" fill-rule="nonzero" d="M92.3600307,174.539393 C88.5007967,173.619095 84.6132223,172.54723 78.7973076,170.834728 C77.2896343,170.390792 71.809539,168.762855 71.0462605,168.537055 C67.7481779,167.561382 65.0154037,166.764995 62.1991012,165.963663 L58.5130092,164.914847 L56.4153765,172.28703 L60.1014685,173.335847 C62.8888286,174.128944 65.597355,174.918265 68.8719301,175.886983 C69.6272295,176.110423 75.1139978,177.740342 76.6323032,178.187409 C82.5656966,179.934503 86.5655505,181.037324 90.5820863,181.995134 C104.919184,185.414051 118.615239,186.504124 141.91194,185.764223 L145.632942,185.646045 L145.562096,159.968796 L137.897326,159.989943 L137.94759,178.207656 C117.544035,178.699826 105.210402,177.603776 92.3600307,174.539393 Z"/></g></g></svg>