<svg xmlns="http://www.w3.org/2000/svg" xmlns:xlink="http://www.w3.org/1999/xlink" width="182" height="232" version="1.1" viewBox="0 0 182 232"><title>fear</title><desc>Created with Sketch.</desc><g id="Page-1" fill="none" fill-rule="evenodd" stroke="none" stroke-width="1"><g id="Group-3" fill="#FFF" transform="translate(2.034950, 0.426950)"><path id="Stroke-24" fill-rule="nonzero" d="M40.3911424,100.136441 L40.389,100.02605 C40.389,100.044763 40.3890117,100.063476 40.3890351,100.082186 L40.3911424,100.136441 Z M89.7051472,151.224665 C114.648502,151.101008 139.4681,126.953529 139.4681,100.02605 L140.888894,51.2808702 L140.8901,51.19805 C140.8901,22.9399446 117.9495,1.42108547e-14 89.69105,1.42108547e-14 C61.4327723,1.42108547e-14 38.493,22.9397723 38.493,51.19805 L38.4951424,51.3084406 L40.3890351,100.082171 C40.4229019,127.127645 64.9247152,151.347453 89.7051472,151.224665 Z M133.779206,99.9432298 C133.778,123.780045 111.529243,145.426302 89.6769458,145.534635 C68.025383,145.641919 46.0791,123.932973 46.0791,100.02605 L46.0769576,99.9156594 L44.1831319,51.1436551 C44.2125497,26.0528911 64.5934618,5.6901 89.69105,5.6901 C114.793378,5.6901 135.177909,26.0604538 135.199982,51.1572472 L133.779206,99.9432298 Z"/><path id="Stroke-25" fill-rule="nonzero" d="M40.3911424,100.136441 L40.389,100.02605 C40.389,100.044763 40.3890117,100.063476 40.3890351,100.082186 L40.3911424,100.136441 Z M89.7051472,151.224665 C114.648502,151.101008 139.4681,126.953529 139.4681,100.02605 L140.888894,51.2808702 L140.8901,51.19805 C140.8901,22.9399446 117.9495,1.42108547e-14 89.69105,1.42108547e-14 C61.4327723,1.42108547e-14 38.493,22.9397723 38.493,51.19805 L38.4951424,51.3084406 L40.3890351,100.082171 C40.4229019,127.127645 64.9247152,151.347453 89.7051472,151.224665 Z M133.779206,99.9432298 C133.778,123.780045 111.529243,145.426302 89.6769458,145.534635 C68.025383,145.641919 46.0791,123.932973 46.0791,100.02605 L46.0769576,99.9156594 L44.1831319,51.1436551 C44.2125497,26.0528911 64.5934618,5.6901 89.69105,5.6901 C114.793378,5.6901 135.177909,26.0604538 135.199982,51.1572472 L133.779206,99.9432298 Z"/><path id="Stroke-26" fill-rule="nonzero" d="M110.639498,118.437217 C111.42939,119.661348 110.465087,121.258272 109.013964,121.129165 C108.932892,121.121951 108.775845,121.108261 108.550018,121.08902 C108.172499,121.056854 107.740562,121.020986 107.261409,120.982343 C105.891665,120.871872 104.419197,120.761384 102.90176,120.658285 C101.174333,120.540919 99.4982783,120.440724 97.9155867,120.363026 C94.9491882,120.217399 92.4589976,120.157964 90.6141525,120.203519 C88.6322308,120.252349 85.8251692,120.410439 82.4133225,120.654051 C81.3857532,120.727421 80.3169237,120.807613 79.2163349,120.893551 C77.229665,121.048677 75.2343775,121.214932 73.3283843,121.381184 C72.6613479,121.439367 72.0532111,121.493386 71.516188,121.541849 C71.1943842,121.570891 70.9680846,121.5916 70.8494966,121.602587 C69.3785129,121.738874 68.4108836,120.103731 69.2382902,118.879899 C69.3185184,118.761232 69.4637444,118.55487 69.6708668,118.27321 C70.0092509,117.813051 70.4031409,117.30273 70.8495321,116.754614 C72.1219281,115.192263 73.5664602,113.630736 75.1614763,112.168861 C79.7953043,107.921833 84.7505641,105.33332 89.8953575,105.308072 C95.3451874,105.281001 100.405039,107.785401 104.963997,111.926591 C106.522611,113.342379 107.912173,114.855015 109.118984,116.368943 C109.848463,117.284064 110.360782,118.00528 110.639498,118.437217 Z M102.610675,114.517319 C98.6411508,110.911549 94.34673,108.786004 89.912638,108.808029 C85.8022802,108.828201 81.5798677,111.033891 77.5263166,114.74908 C76.4742676,115.713311 75.4893322,116.729628 74.582937,117.760203 C76.0151983,117.638482 77.4815458,117.518356 78.9438721,117.404172 C80.0518896,117.317654 81.1283921,117.236887 82.1640505,117.162939 C85.6258602,116.915759 88.4793882,116.755052 90.5278499,116.704583 C92.4755243,116.656489 95.0421758,116.717749 98.0872029,116.867236 C99.6934321,116.946089 101.390961,117.047568 103.139012,117.166335 C103.89232,117.217517 104.63449,117.270489 105.358743,117.324373 C104.519744,116.363864 103.601084,115.416971 102.610675,114.517319 Z"/><path id="Stroke-27" fill-rule="nonzero" d="M61.0874551,75.5466313 C61.0999979,75.5018518 61.1353986,75.3878038 61.1951191,75.2147151 C61.3005369,74.9091814 61.4333025,74.5643203 61.5946789,74.1904138 C62.0579577,73.1170049 62.6516002,72.0431028 63.3811196,71.049994 C65.3697616,68.3428176 67.9474139,66.7559048 71.2823918,66.7166184 C73.7150914,66.6878349 75.7053541,68.1955443 77.3133545,70.8973189 C77.9101785,71.9001073 78.4026823,72.988239 78.7921785,74.0774931 C78.9284591,74.4586119 79.0415396,74.8108554 79.1322206,75.1238729 C79.1842738,75.303553 79.2159492,75.4241997 79.2282171,75.475575 L79.6687421,77.320408 L83.358408,76.4393579 L82.9178829,74.594525 C82.8265119,74.2118807 82.6457845,73.5880364 82.3640867,72.8002481 C81.8974388,71.4952332 81.3062625,70.1890959 80.5731015,68.9572331 C78.3425818,65.2094968 75.2620554,62.8758659 71.23761,62.9234827 C66.5876538,62.9782597 62.9654915,65.2082175 60.3239238,68.8042342 C59.4118575,70.0458474 58.6819298,71.3662902 58.1118194,72.6872263 C57.7659007,73.4887139 57.5457969,74.1266434 57.4346449,74.5234687 L56.9230636,76.3498737 L60.5758737,77.3730364 L61.0874551,75.5466313 Z"/><path id="Fill-28" d="M70.16705,70.84005 C72.48205,70.84005 74.36205,72.72005 74.36205,75.03505 C74.36205,77.35005 72.48205,79.23005 70.16705,79.23005 C67.85205,79.23005 65.97205,77.35005 65.97205,75.03505 C65.97205,72.72005 67.85205,70.84005 70.16705,70.84005 Z"/><polygon id="Stroke-29" fill-rule="nonzero" points="56.734 63.506 81.146 54.294 79.807 50.745 55.395 59.957"/><path id="Stroke-30" fill-rule="nonzero" d="M118.044455,74.5234687 C117.933305,74.1266516 117.713209,73.4887302 117.367307,72.6872506 C116.797223,71.3663242 116.067339,70.0458903 115.15534,68.8042836 C112.513937,65.2082483 108.892055,62.9782611 104.242394,62.9234816 C100.217664,62.8758679 97.1368428,65.2094632 94.9061565,68.957175 C94.1729302,70.1890475 93.581711,71.4951961 93.1150378,72.8002226 C92.8333242,73.5880195 92.6525901,74.2118724 92.5612171,74.594525 L92.120692,76.4393579 L95.8103579,77.320408 L96.2508829,75.475575 C96.2631499,75.4242036 96.2948247,75.3035607 96.346878,75.1238845 C96.4375598,74.8108717 96.5506427,74.4586327 96.6869278,74.0775186 C97.0764373,72.9882761 97.5689676,71.9001557 98.1658343,70.8973771 C99.7739799,68.1955779 101.764511,66.687833 104.197613,66.7166173 C107.532206,66.7559034 110.109577,68.3427869 112.098071,71.0499447 C112.827546,72.0430599 113.421161,73.1169709 113.884426,74.1903895 C114.045799,74.5643002 114.178562,74.9091657 114.283979,75.2147037 C114.3437,75.3877962 114.379101,75.501848 114.391645,75.5466313 L114.903226,77.3730364 L118.556036,76.3498737 L118.044455,74.5234687 Z"/><path id="Fill-31" d="M105.31205,70.84005 C102.99705,70.84005 101.11705,72.72005 101.11705,75.03505 C101.11705,77.35005 102.99705,79.23005 105.31205,79.23005 C107.62705,79.23005 109.50705,77.35005 109.50705,75.03505 C109.50705,72.72005 107.62705,70.84005 105.31205,70.84005 Z"/><polygon id="Stroke-32" fill-rule="nonzero" points="120.085 59.957 95.672 50.745 94.333 54.294 118.746 63.506"/><polygon id="Stroke-33" fill-rule="nonzero" points="82.904 98.778 96.892 98.778 96.892 94.036 82.904 94.036"/><path id="Stroke-34" fill-rule="nonzero" d="M115.48365,141.57417 L109.79357,141.55905 L109.736774,162.932894 L112.039679,163.385252 C148.718484,170.590031 173.693,190.749617 173.693,213.09855 L173.693,215.9436 L179.3831,215.9436 L179.3831,213.09855 C179.3831,187.943983 153.23544,166.339731 115.439275,158.273657 L115.48365,141.57417 Z"/><path id="Stroke-35" fill-rule="nonzero" d="M0,213.09855 L0,215.9436 L5.6901,215.9436 L5.6901,213.09855 C5.6901,190.749726 30.664434,170.590064 67.3424353,163.385249 L69.6457734,162.932794 L69.5889862,142.992509 L63.8989093,143.008714 L63.942382,158.273764 C26.1472482,166.339965 0,187.944216 0,213.09855 Z"/></g></g></svg>