<svg xmlns="http://www.w3.org/2000/svg" xmlns:xlink="http://www.w3.org/1999/xlink" width="181" height="232" version="1.1" viewBox="0 0 181 232"><title>happy</title><desc>Created with Sketch.</desc><g id="Page-1" fill="none" fill-rule="evenodd" stroke="none" stroke-width="1"><g id="Group" fill="#FFF" transform="translate(0.747450, 0.794950)"><path id="Stroke-1" fill-rule="nonzero" d="M89.7056561,151.262065 C114.655272,151.138411 139.4806,126.985258 139.4806,100.05105 L140.901395,51.2938499 L140.9026,51.21105 C140.9026,22.9457723 117.956828,-1.42108547e-14 89.69155,-1.42108547e-14 C61.4264395,-1.42108547e-14 38.4807,22.945805 38.4807,51.21105 L38.482843,51.3214542 L40.3774351,100.107177 C40.4113053,127.159464 64.9188399,151.384963 89.7056561,151.262065 Z M133.791705,99.9682501 C133.7905,123.811778 111.536011,145.4637 89.6774496,145.572035 C68.0195003,145.679419 46.0675,123.964788 46.0675,100.05105 L46.065357,99.9406458 L44.1708319,51.1566482 C44.2002509,26.0589189 64.5871331,5.6901 89.69155,5.6901 C114.800673,5.6901 135.190415,26.0662504 135.212482,51.170257 L133.791705,99.9682501 Z"/><path id="Stroke-2" fill-rule="nonzero" d="M64.2333902,105.607445 C63.5458245,104.161253 64.8491155,102.566446 66.4032731,102.95221 C66.5171815,102.980484 66.7390596,103.034602 67.0579283,103.110866 C67.5920555,103.238614 68.2012924,103.38113 68.8746403,103.534714 C70.7997941,103.973823 72.8501932,104.413014 74.9373279,104.822647 C76.805941,105.189391 78.6155828,105.514678 80.3325923,105.787453 C84.1932003,106.400775 87.3976598,106.718996 89.6830694,106.67372 C92.0105425,106.627718 95.2991256,106.174445 99.2722752,105.395294 C100.821175,105.091548 102.446089,104.743701 104.123603,104.36016 C106.365742,103.847524 108.587862,103.297842 110.688389,102.748218 C111.42323,102.555939 112.090036,102.377498 112.676186,102.217524 C113.026325,102.121963 113.270698,102.0541 113.396712,102.01856 C114.993212,101.568303 116.357754,103.239814 115.597039,104.713875 C115.501323,104.899348 115.323325,105.230983 115.067186,105.688091 C114.645377,106.440857 114.153877,107.277319 113.596717,108.176857 C112.005507,110.745876 110.201769,113.315164 108.214493,115.721012 C102.397401,122.763333 96.2075128,127.053222 89.7281076,127.078735 C82.8761179,127.106038 76.6423487,122.980058 71.0788815,116.189665 C69.1851397,113.878291 67.5026805,111.410478 66.046561,108.942727 C65.5365158,108.07833 65.0904296,107.274266 64.7106219,106.550213 C64.479397,106.109413 64.3195054,105.788576 64.2333902,105.607445 Z M74.0131816,113.78555 C78.9247321,119.780258 84.2533196,123.30712 89.7130816,123.285365 C94.776722,123.265426 100.123155,119.560092 105.289829,113.305184 C106.984767,111.253248 108.547118,109.06143 109.947219,106.856429 C108.327499,107.267215 106.654809,107.67272 104.969095,108.058136 C103.255032,108.450033 101.592082,108.806023 100.002273,109.117791 C95.830875,109.93582 92.3537878,110.415075 89.7581176,110.466378 C87.2005328,110.517046 83.8012256,110.179475 79.7374114,109.533871 C77.972119,109.253425 76.1180151,108.920146 74.2067514,108.545031 C72.6596341,108.241384 71.1338015,107.922125 69.6625222,107.598573 C70.9438115,109.713892 72.4009061,111.817715 74.0131816,113.78555 Z"/><path id="Stroke-3" fill-rule="nonzero" d="M60.6653866,77.0453862 C60.7246651,76.8716041 60.8798301,76.5023073 61.1414329,76.0045569 C61.5894439,75.1521282 62.165199,74.2968002 62.875509,73.5027083 C64.8525337,71.2924915 67.4603593,69.9739295 70.8871631,69.9406606 C73.4286109,69.9161233 75.4286245,71.1602723 77.0167765,73.3514287 C77.5950898,74.1493214 78.0719723,75.0145045 78.4486136,75.8794445 C78.6710807,76.3903302 78.8064304,76.7739929 78.8612846,76.9626378 L79.3908724,78.7839032 L83.0334032,77.7247276 L82.5038154,75.9034622 C82.4062019,75.5677668 82.2178394,75.033834 81.9265732,74.3649541 C81.4469923,73.2636181 80.8400781,72.1625251 80.0882435,71.1252269 C77.8376455,68.0201008 74.7664949,66.1096294 70.8504385,66.1474384 C66.2928477,66.1916854 62.7012436,68.007663 60.0481688,70.9736708 C59.1168583,72.0148304 58.3689917,73.1258432 57.7835527,74.2397553 C57.4250854,74.9218095 57.1946977,75.4701384 57.0751134,75.8207138 L56.4627772,77.6158503 L60.0530503,78.8405228 L60.6653866,77.0453862 Z"/><path id="Fill-4" d="M70.14115,71.29005 C72.45635,71.29005 74.33555,73.17005 74.33555,75.48505 C74.33555,77.80005 72.45635,79.68005 70.14115,79.68005 C67.82595,79.68005 65.94635,77.80005 65.94635,75.48505 C65.94635,73.17005 67.82595,71.29005 70.14115,71.29005 Z"/><polygon id="Stroke-5" fill-rule="nonzero" points="57.19 63.022 82.773 60.242 82.363 56.471 56.78 59.25"/><path id="Stroke-6" fill-rule="nonzero" d="M99.7136998,76.3343475 C99.7729743,76.1605647 99.9281297,75.7912676 100.189717,75.2935173 C100.637702,74.4410901 101.213426,73.5857641 101.9237,72.7916752 C103.900616,70.581476 106.508309,69.2629291 109.934964,69.2296606 C112.476509,69.205123 114.476579,70.4492794 116.06476,72.6404405 C116.643082,73.4383316 117.119969,74.3035126 117.496613,75.1684502 C117.719081,75.679334 117.854431,76.0629948 117.909285,76.2516378 L118.438872,78.0729032 L122.081403,77.0137276 L121.551815,75.1924622 C121.454201,74.8567649 121.265837,74.3228302 120.974568,73.6539484 C120.494981,72.55261 119.888058,71.4515149 119.13621,70.4142151 C116.885579,67.3090937 113.814372,65.3986297 109.898239,65.4364384 C105.340759,65.4806858 101.749266,67.2966785 99.0963003,70.2627039 C98.165031,71.3038665 97.4172018,72.4148813 96.8317956,73.528795 C96.4733488,74.2108491 96.2429758,74.7591777 96.1234002,75.1097525 L95.5111028,76.9049023 L99.1014023,78.1294972 L99.7136998,76.3343475 Z"/><path id="Fill-7" d="M108.71555,72.00205 C111.03055,72.00205 112.90955,73.88105 112.90955,76.19605 C112.90955,78.51205 111.03055,80.39105 108.71555,80.39105 C106.39955,80.39105 104.52055,78.51205 104.52055,76.19605 C104.52055,73.88105 106.39955,72.00205 108.71555,72.00205 Z"/><polygon id="Stroke-8" fill-rule="nonzero" points="121.821 58.539 96.238 55.758 95.828 59.53 121.411 62.311"/><polygon id="Stroke-9" fill-rule="nonzero" points="83.054 98.884 97.041 98.884 97.041 94.142 83.054 94.142"/><path id="Stroke-10" fill-rule="nonzero" d="M115.48415,140.83777 L109.79407,140.82265 L109.737274,162.196588 L112.040172,162.64895 C148.718461,169.853724 173.6935,190.01351 173.6935,212.36225 L173.6935,215.2073 L179.3836,215.2073 L179.3836,212.36225 C179.3836,187.207861 153.235452,165.603446 115.439775,157.537363 L115.48415,140.83777 Z"/><path id="Stroke-11" fill-rule="nonzero" d="M0,212.36225 L0,215.2073 L5.6901,215.2073 L5.6901,212.36225 C5.6901,190.013317 30.6647541,169.853663 67.3433195,162.648952 L69.6468165,162.19648 L69.5888121,142.255936 L63.8987362,142.272488 L63.9431401,157.537481 C26.1475184,165.603593 0,187.207812 0,212.36225 Z"/></g></g></svg>