<svg xmlns="http://www.w3.org/2000/svg" xmlns:xlink="http://www.w3.org/1999/xlink" width="339" height="306" version="1.1" viewBox="0 0 339 306"><title>norightear</title><desc>Created with Sketch.</desc><g id="Page-1" fill="none" fill-rule="evenodd" stroke="none" stroke-width="1"><g id="Group-11" fill="#FFF" transform="translate(57.000000, 35.000000)"><path id="Stroke-64" fill-rule="nonzero" d="M178.365048,68.880967 C178.403818,68.8256665 178.715858,68.3824304 178.809964,68.2477018 C180.988461,65.128839 181.83868,62.7553408 181.392129,59.0391999 C176.539049,18.6275102 156.028515,-0.456113138 122.671781,0.00827098061 C106.478889,0.233445989 91.0636725,6.56281403 78.2847425,17.3136493 C66.8864859,26.9029325 58.3877662,39.4662851 55.107724,51.225807 C48.3303255,75.5229545 52.9075467,102.15605 66.3256411,124.633441 C79.1020589,146.035925 98.4149052,160.939507 117.59188,163.497515 C126.908434,164.739921 133.415613,165.363494 140.752449,165.367919 C152.152703,165.374796 160.395065,163.582113 164.748339,158.918726 C170.896585,152.332878 173.567224,142.619428 175.778381,124.88887 C175.89479,123.955423 176.013145,122.981536 176.151078,121.826869 C176.204962,121.375793 176.259772,120.914558 176.331768,120.306942 C176.421375,119.550258 176.470678,119.133929 176.510599,118.797426 C177.023308,114.47572 177.376744,111.690094 177.747152,109.233905 L189.973873,106.735973 C192.19818,106.281545 193.342723,103.799364 192.244019,101.812684 L176.482557,73.3127312 C176.60202,71.7318934 177.116464,70.661932 178.365048,68.880967 Z M174.119333,103.109017 C172.757159,103.387311 171.706585,104.475007 171.475741,105.84602 C170.926995,109.105098 170.517811,112.210157 169.830346,118.004909 C169.790326,118.342243 169.740919,118.759453 169.6514,119.515389 C169.579634,120.121064 169.525053,120.580365 169.471468,121.028946 C169.334805,122.17298 169.217785,123.135882 169.102989,124.05639 C167.072299,140.339843 164.643734,149.172841 159.830933,154.328193 C157.181626,157.166228 150.375099,158.646622 140.756507,158.640821 C133.800595,158.636625 127.518429,158.034614 118.481212,156.82946 C101.547634,154.570698 83.903384,140.954759 72.1018152,121.185299 C59.5860318,100.219418 55.3311928,75.4621413 61.5874725,53.0332179 C64.4881631,42.6337373 72.2153837,31.2108642 82.6154637,22.4613408 C94.2602894,12.6646206 108.209632,6.93712902 122.765371,6.73471992 C152.589413,6.31951706 170.259979,22.7607478 174.713048,59.8415455 C174.928125,61.6313889 174.614819,62.5060233 173.295001,64.3955522 C173.209535,64.5179104 172.9022,64.9544637 172.856768,65.0192672 C170.684671,68.1175183 169.727053,70.4307066 169.727053,74.1294951 C169.727053,74.698914 169.871613,75.2590123 170.147187,75.7573064 L184.141295,101.061519 L174.119333,103.109017 Z"/><polygon id="Stroke-65" fill-rule="nonzero" points="170.142 125.303 140.208 123.037 139.831 128.023 169.765 130.289"/><path id="Stroke-66" fill-rule="nonzero" d="M38.4214535,193.776227 C20.3383051,202.608229 7.82418748,213.452112 1.56555845,227.436237 L0,230.934281 L6.99608933,234.065398 L8.56164779,230.567354 C13.9697019,218.483733 25.1694371,208.778804 41.7852527,200.663463 C54.4159357,194.494503 66.9568935,190.331397 89.7258158,183.97683 L92.5323992,183.193542 L92.4752111,145.325312 L84.8104199,145.336887 L84.8588124,177.380982 C63.404076,183.424574 51.0595215,187.60366 38.4214535,193.776227 Z"/><path id="Stroke-67" fill-rule="nonzero" d="M139.82393,158.341047 L132.159155,158.321169 L132.09465,183.192661 L134.90439,183.97683 C157.673313,190.331397 170.214271,194.494503 182.844954,200.663463 C199.460769,208.778804 210.660504,218.483733 216.068558,230.567354 L217.634117,234.065398 L224.630206,230.934281 L223.064648,227.436237 C216.806019,213.452112 204.291901,202.608229 186.208753,193.776227 C173.571304,187.603963 161.22734,183.424983 139.774547,177.38187 L139.82393,158.341047 Z"/><path id="Stroke-68" fill-rule="nonzero" d="M144.523792,81.8293643 C144.588446,81.6397988 144.757687,81.2369597 145.043025,80.6939998 C145.531686,79.7641474 146.159691,78.8311328 146.934472,77.9649171 C149.090965,75.5539304 151.935595,74.1156071 155.673671,74.0793477 C158.445734,74.0523909 160.627083,75.4094951 162.359238,77.7997856 C162.989963,78.6701556 163.510062,79.6139324 163.920834,80.5574458 C164.163462,81.1147456 164.311077,81.5332669 164.370903,81.7390567 L164.948465,83.7257566 L168.921865,82.5706334 L168.344303,80.5839335 C168.23785,80.217755 168.032425,79.635332 167.714771,78.9057032 C167.19174,77.7043357 166.529831,76.5032317 165.709862,75.3717129 C163.255079,71.9842307 159.905144,69.9001033 155.633485,69.9416429 C150.66204,69.9898659 146.744241,71.9708135 143.85029,75.206288 C142.834436,76.3420253 142.018692,77.5539603 141.380129,78.7690576 C140.989133,79.5130674 140.737844,80.1112048 140.607414,80.4936258 L139.939545,82.451815 L143.855923,83.7875535 L144.523792,81.8293643 Z"/><path id="Fill-69" d="M157.037603,77.5854951 C159.562603,77.5854951 161.613603,79.6364951 161.613603,82.1614951 C161.613603,84.6874951 159.562603,86.7374951 157.037603,86.7374951 C154.511603,86.7374951 152.461603,84.6874951 152.461603,82.1614951 C152.461603,79.6364951 154.511603,77.5854951 157.037603,77.5854951 Z"/><polygon id="Stroke-70" fill-rule="nonzero" points="164.009 61.298 136.175 64.933 136.711 69.036 164.545 65.401"/><path id="Stroke-71" fill-rule="nonzero" d="M102.583864,70.2383053 C104.647094,72.8470793 105.667453,76.3061848 106.211021,81.3455981 L106.479124,83.8311807 L111.450289,83.2949746 L111.182186,80.809392 C110.546196,74.913133 109.29132,70.6589944 106.505592,67.1366849 C102.830186,62.4894544 96.9758925,60.1686134 88.6744334,60.5015027 L88.3398757,60.5375828 C75.0005564,62.8930559 69.9615701,74.8988819 72.7569283,89.8738672 C75.2407372,103.179854 83.1929051,114.798707 91.2390323,114.462313 C100.267114,114.085743 104.188709,110.671506 106.910022,103.5948 L107.807327,101.261381 L103.140489,99.4667711 L102.243184,101.80019 C100.182319,107.159417 97.8593816,109.181824 91.0304162,109.466667 C86.298652,109.664493 79.7520666,100.099327 77.6720279,88.9563729 C75.3375676,76.4504591 79.1221861,67.334932 89.0458512,65.4910268 C95.7381023,65.2540152 99.9899838,66.9585703 102.583864,70.2383053 Z"/><path id="Stroke-72" fill-rule="nonzero" d="M95.8502584,84.0594128 C93.1473538,84.2841813 90.9360822,85.6564883 89.6794696,88.3066005 C86.3669751,95.2911816 92.777181,102.951028 98.6427834,98.7954409 L100.274729,97.6392606 L97.9623687,94.375369 L96.3304228,95.5315492 C94.2957946,96.9730168 91.5515786,93.6938282 93.2936774,90.0205147 C93.9039974,88.7333904 94.8312176,88.157961 96.1817468,88.0456535 C97.1600532,87.9642994 98.2818786,88.1437436 99.4056503,88.5010027 C99.9741246,88.6817268 100.399616,88.858209 100.607565,88.9599614 L103.483743,87.2704153 C103.486165,87.2251819 103.489172,87.152605 103.491974,87.0544264 C103.514722,86.2573467 103.489654,85.2429904 103.380726,84.0864511 C103.218414,82.3631002 102.89676,80.6577541 102.372713,79.0423313 C100.550994,73.4267263 96.6499138,69.9485971 90.4173002,70.1646962 C82.2332084,70.4469439 78.5902923,79.7910807 80.5336197,88.594605 L80.9647296,90.5475884 L84.8706964,89.6853686 L84.4395865,87.7323852 C82.957841,81.0198865 85.5642356,74.3344436 90.5555369,74.1623068 C94.7863452,74.0156149 97.2491381,76.2113941 98.5679089,80.2766203 C98.9824684,81.5545362 99.2480313,82.9391395 99.3876909,84.3511163 C98.2065068,84.0792544 97.0174634,83.9623501 95.8502584,84.0594128 Z"/></g></g></svg>