<svg xmlns="http://www.w3.org/2000/svg" xmlns:xlink="http://www.w3.org/1999/xlink" width="181" height="232" version="1.1" viewBox="0 0 181 232"><title>sad</title><desc>Created with Sketch.</desc><g id="Page-1" fill="none" fill-rule="evenodd" stroke="none" stroke-width="1"><g id="Group-4" fill="#FFF" transform="translate(1.177950, 0.177950)"><path id="Stroke-36" fill-rule="nonzero" d="M40.3911424,100.137441 L40.389,100.02705 C40.389,100.045763 40.3890117,100.064476 40.3890351,100.083186 L40.3911424,100.137441 Z M89.7061465,151.225565 C114.649344,151.101909 139.4681,126.954646 139.4681,100.02705 L140.888894,51.2818702 L140.8901,51.19905 C140.8901,22.9405999 117.950155,0 89.69205,0 C61.4337723,0 38.493,22.9407723 38.493,51.19905 L38.4951424,51.3094406 L40.3890351,100.083171 C40.4229019,127.12881 64.9248614,151.348352 89.7061465,151.225565 Z M133.779206,99.9442298 C133.778,123.781195 111.530054,145.427203 89.6779458,145.535535 C68.0255077,145.642819 46.0791,123.934117 46.0791,100.02705 L46.0769576,99.9166594 L44.1831319,51.1446551 C44.2125512,26.0538897 64.5944618,5.6901 89.69205,5.6901 C114.793961,5.6901 135.17791,26.061036 135.199982,51.1582472 L133.779206,99.9442298 Z"/><path id="Stroke-37" fill-rule="nonzero" d="M40.3911424,100.137441 L40.389,100.02705 C40.389,100.045763 40.3890117,100.064476 40.3890351,100.083186 L40.3911424,100.137441 Z M89.7061465,151.225565 C114.649344,151.101909 139.4681,126.954646 139.4681,100.02705 L140.888894,51.2818702 L140.8901,51.19905 C140.8901,22.9405999 117.950155,0 89.69205,0 C61.4337723,0 38.493,22.9407723 38.493,51.19905 L38.4951424,51.3094406 L40.3890351,100.083171 C40.4229019,127.12881 64.9248614,151.348352 89.7061465,151.225565 Z M133.779206,99.9442298 C133.778,123.781195 111.530054,145.427203 89.6779458,145.535535 C68.0255077,145.642819 46.0791,123.934117 46.0791,100.02705 L46.0769576,99.9166594 L44.1831319,51.1446551 C44.2125512,26.0538897 64.5944618,5.6901 89.69205,5.6901 C114.793961,5.6901 135.17791,26.061036 135.199982,51.1582472 L133.779206,99.9442298 Z"/><path id="Stroke-38" fill-rule="nonzero" d="M60.8288997,76.1049058 C61.0276637,75.8135351 61.6403539,75.230625 62.7793065,74.5939575 C64.8084453,73.4596815 67.5923577,72.7557772 71.2693606,72.7377271 C74.1086732,72.724214 76.2654463,73.3951077 77.8667176,74.4997054 C78.3971514,74.8656122 78.821682,75.2507056 79.1487301,75.6262254 C79.3235731,75.8269819 79.4164695,75.9586431 79.4344567,75.9895723 L80.3879791,77.6291656 L83.6671656,75.7221209 L82.7136433,74.0825277 C82.2765245,73.3308966 81.4091217,72.3349361 80.0207161,71.3771786 C77.7832192,69.8336962 74.8688854,68.9271529 71.2510231,68.9443715 C66.94413,68.9655136 63.5290695,69.8290018 60.9283753,71.2827739 C59.9667543,71.8203141 59.1770619,72.4069119 58.5469736,73.0063745 C58.137145,73.3962831 57.858199,73.7282522 57.6952003,73.9671942 L56.6263444,75.5340439 L59.7600439,77.6717556 L60.8288997,76.1049058 Z"/><path id="Fill-39" d="M70.16805,70.84105 C72.48305,70.84105 74.36305,72.72105 74.36305,75.03605 C74.36305,77.35105 72.48305,79.23105 70.16805,79.23105 C67.85205,79.23105 65.97305,77.35105 65.97305,75.03605 C65.97305,72.72105 67.85205,70.84105 70.16805,70.84105 Z"/><polygon id="Stroke-40" fill-rule="nonzero" points="58.871 72.143 79.815 56.579 77.552 53.534 56.608 69.098"/><path id="Stroke-41" fill-rule="nonzero" d="M118.5309,73.9671942 C118.367901,73.7282522 118.088955,73.3962831 117.679126,73.0063745 C117.049038,72.4069119 116.259346,71.8203141 115.297725,71.2827739 C112.69703,69.8290018 109.28197,68.9655136 104.975361,68.9443729 C101.357215,68.9271529 98.4428808,69.8336962 96.2053839,71.3771786 C94.8169783,72.3349361 93.9495755,73.3308966 93.5124567,74.0825277 L92.5589344,75.7221209 L95.8381209,77.6291656 L96.7916433,75.9895723 C96.8096305,75.9586431 96.9025269,75.8269819 97.0773699,75.6262254 C97.404418,75.2507056 97.8289486,74.8656122 98.3593824,74.4997054 C99.9606537,73.3951077 102.117427,72.724214 104.957023,72.7377285 C108.633742,72.7557772 111.417655,73.4596815 113.446793,74.5939575 C114.585746,75.230625 115.198436,75.8135351 115.3972,76.1049058 L116.466056,77.6717556 L119.599756,75.5340439 L118.5309,73.9671942 Z"/><path id="Fill-42" d="M106.05805,70.84105 C103.74305,70.84105 101.86305,72.72105 101.86305,75.03605 C101.86305,77.35105 103.74305,79.23105 106.05805,79.23105 C108.37305,79.23105 110.25305,77.35105 110.25305,75.03605 C110.25305,72.72105 108.37305,70.84105 106.05805,70.84105 Z"/><polygon id="Stroke-43" fill-rule="nonzero" points="119.618 69.098 98.674 53.534 96.411 56.579 117.355 72.143"/><polygon id="Stroke-44" fill-rule="nonzero" points="82.904 98.779 96.893 98.779 96.893 94.037 82.904 94.037"/><path id="Stroke-45" fill-rule="nonzero" d="M75.0482383,119.4352 C75.0909221,119.418697 75.1877775,119.38262 75.335661,119.329748 C75.5908409,119.238516 75.8908525,119.136006 76.2325381,119.024993 C77.21767,118.704926 78.3323404,118.383799 79.5510542,118.083693 C83.1952388,117.18632 86.9609248,116.667404 90.6117893,116.717869 C94.1487052,116.766353 97.6094402,117.270978 100.851271,118.0818 C102.045757,118.380556 103.12345,118.69992 104.064175,119.017872 C104.617761,119.204977 104.99512,119.346751 105.176258,119.42102 L106.934229,120.141812 L108.375812,116.625871 L106.617842,115.90508 C106.364704,115.80129 105.912671,115.631461 105.280906,115.417933 C104.246047,115.068164 103.070516,114.719807 101.773297,114.395356 C98.2629684,113.51738 94.516101,112.971033 90.6640931,112.918228 C86.6556534,112.862821 82.5786471,113.424638 78.6424547,114.393917 C77.3307626,114.716919 76.1280639,115.063406 75.0583469,115.410954 C74.4077158,115.622342 73.939461,115.789754 73.6778617,115.8909 L71.9057113,116.576088 L73.276088,120.120389 L75.0482383,119.4352 Z"/><path id="Stroke-46" fill-rule="nonzero" d="M115.48365,140.60117 L109.79357,140.58605 L109.736774,161.959894 L112.039679,162.412252 C148.718484,169.617031 173.693,189.776617 173.693,212.12555 L173.693,214.9706 L179.3831,214.9706 L179.3831,212.12555 C179.3831,186.970983 153.23544,165.366731 115.439275,157.300657 L115.48365,140.60117 Z"/><path id="Stroke-47" fill-rule="nonzero" d="M-5.68434189e-14,212.12555 L-5.68434189e-14,214.9706 L5.6901,214.9706 L5.6901,212.12555 C5.6901,189.776617 30.6646158,169.617031 67.3434211,162.412252 L69.6469325,161.959775 L69.5887927,142.019317 L63.8987169,142.035907 L63.9432242,157.300785 C26.1473831,165.36696 -5.68434189e-14,186.971117 -5.68434189e-14,212.12555 Z"/></g></g></svg>