<svg xmlns="http://www.w3.org/2000/svg" xmlns:xlink="http://www.w3.org/1999/xlink" width="181" height="232" version="1.1" viewBox="0 0 181 232"><title>surprise</title><desc>Created with Sketch.</desc><g id="Page-1" fill="none" fill-rule="evenodd" stroke="none" stroke-width="1"><g id="Group-5" fill="#FFF" transform="translate(1.321950, 0.426950)"><path id="Stroke-48" fill-rule="nonzero" d="M40.3791436,100.161472 L40.377,100.05105 C40.377,100.069769 40.3770117,100.088486 40.3770352,100.107202 L40.3791436,100.161472 Z M89.7051562,151.261665 C114.658013,151.138017 139.4831,126.986047 139.4831,100.05105 L140.901898,51.2937335 L140.9031,51.21105 C140.9031,22.9449361 117.958492,-1.42108547e-14 89.69105,-1.42108547e-14 C61.4257723,-1.42108547e-14 38.48,22.9457723 38.48,51.21105 L38.4821436,51.3214716 L40.3770351,100.107186 C40.4109108,127.159365 64.918424,151.384563 89.7051562,151.261665 Z M133.794202,99.9683665 C133.793,123.812515 111.538802,145.463304 89.6769522,145.571635 C68.0190671,145.67902 46.0671,123.964669 46.0671,100.05105 L46.0649564,99.9406284 L44.1701319,51.1566396 C44.1995586,26.0588822 64.586467,5.6901 89.69105,5.6901 C114.802337,5.6901 135.190948,26.0654287 135.212982,51.1703143 L133.794202,99.9683665 Z"/><path id="Stroke-49" fill-rule="nonzero" d="M60.7083794,76.8999718 C60.7224314,76.8446473 60.7594525,76.7131097 60.8209277,76.5165952 C60.9282756,76.1734419 61.0631366,75.7870584 61.2268036,75.3687666 C61.6954925,74.1709155 62.295548,72.9734403 63.0322705,71.8669835 C65.0296043,68.8672604 67.5989989,67.1272191 70.8862568,67.0956626 C73.3705153,67.0716781 75.3627511,68.4509543 76.9611183,70.9030737 C77.5502021,71.8068109 78.0362978,72.7874547 78.4205445,73.7686852 C78.648678,74.3512579 78.7885388,74.7921196 78.847044,75.0158666 L79.3268606,76.8508726 L82.9968726,75.8912394 L82.517056,74.0562334 C82.422965,73.6963929 82.2388314,73.1159765 81.9527703,72.3854773 C81.4800259,71.1782547 80.8813265,69.9704455 80.1390091,68.8316264 C77.8988798,65.394954 74.8210556,63.2640969 70.849739,63.3024384 C66.1432424,63.3476191 62.5084385,65.809175 59.8747658,69.7645926 C58.9751533,71.115688 58.2557652,72.5513042 57.6941918,73.9865447 C57.3545221,74.8546551 57.1392062,75.5429442 57.0317206,75.9661282 L56.5647988,77.8044576 L60.2414576,78.7383012 L60.7083794,76.8999718 Z"/><path id="Fill-50" d="M70.14105,71.29005 C72.45605,71.29005 74.33605,73.17005 74.33605,75.48505 C74.33605,77.80005 72.45605,79.68005 70.14105,79.68005 C67.82605,79.68005 65.94605,77.80005 65.94605,75.48505 C65.94605,73.17005 67.82605,71.29005 70.14105,71.29005 Z"/><polygon id="Stroke-51" fill-rule="nonzero" points="57.235 45.944 82.808 42.609 82.318 38.847 56.744 42.183"/><path id="Stroke-52" fill-rule="nonzero" d="M122.046419,75.9662831 C121.938974,75.5431091 121.723731,74.8548297 121.384169,73.986728 C120.82277,72.5514949 120.103591,71.1158841 119.204221,69.7647889 C116.571198,65.8092812 112.937118,63.3476219 108.231261,63.3024374 C104.260427,63.2640954 101.182892,65.3949892 98.9429289,68.8316854 C98.2006777,69.9704954 97.6020221,71.1782935 97.1293037,72.3855043 C96.8432591,73.1159944 96.6591326,73.6964018 96.565044,74.0562334 L96.0852274,75.8912394 L99.7552394,76.8508726 L100.235056,75.0158666 C100.293564,74.7921107 100.433424,74.35124 100.661551,73.7686582 C101.045785,72.787416 101.531855,71.806761 102.120897,70.9030147 C103.719118,68.4509192 105.71108,67.0716796 108.194736,67.0956616 C111.481097,67.1272164 114.049719,68.8671542 116.046455,71.8667873 C116.782979,72.9732442 117.382865,74.1707249 117.851414,75.3685833 C118.015032,75.7868796 118.149852,76.1732678 118.257167,76.5164261 C118.318623,76.7129452 118.355633,76.8444876 118.369681,76.8998169 L118.836448,78.7381856 L122.513186,77.8046519 L122.046419,75.9662831 Z"/><path id="Fill-53" d="M108.94105,71.29005 C106.62605,71.29005 104.74605,73.17005 104.74605,75.48505 C104.74605,77.80005 106.62605,79.68005 108.94105,79.68005 C111.25805,79.68005 113.13805,77.80005 113.13805,75.48505 C113.13805,73.17005 111.25805,71.29005 108.94105,71.29005 Z"/><polygon id="Stroke-54" fill-rule="nonzero" points="122.334 43.183 96.765 39.847 96.274 43.608 121.843 46.944"/><polygon id="Stroke-55" fill-rule="nonzero" points="83.053 98.884 97.041 98.884 97.041 94.142 83.053 94.142"/><path id="Stroke-56" fill-rule="nonzero" d="M89.69105,110.10005 C96.8572266,110.10005 102.80905,114.660143 102.80905,120.50105 C102.80905,126.342771 96.857445,130.90305 89.69105,130.90305 C82.5248204,130.90305 76.57405,126.342868 76.57405,120.50105 C76.57405,114.660046 82.5250387,110.10005 89.69105,110.10005 Z M89.69105,113.10005 C84.0338765,113.10005 79.57405,116.51743 79.57405,120.50105 C79.57405,124.485547 84.033691,127.90305 89.69105,127.90305 C95.3486248,127.90305 99.80905,124.485353 99.80905,120.50105 C99.80905,116.517624 95.3484393,113.10005 89.69105,113.10005 Z"/><path id="Stroke-57" fill-rule="nonzero" d="M115.480124,140.351641 L109.790041,140.337576 L109.737209,161.710956 L112.03965,162.163246 C148.717436,169.368213 173.693,189.528201 173.693,211.87655 L173.693,214.7216 L179.3831,214.7216 L179.3831,211.87655 C179.3831,186.722444 153.234288,165.117816 115.438876,157.051597 L115.480124,140.351641 Z"/><path id="Stroke-58" fill-rule="nonzero" d="M-5.68434189e-14,211.87655 L-5.68434189e-14,214.7216 L5.6901,214.7216 L5.6901,211.87655 C5.6901,189.527617 30.6646158,169.368031 67.3434211,162.163252 L69.6469325,161.710775 L69.5887927,141.770317 L63.8987169,141.786907 L63.9432242,157.051785 C26.1473831,165.11796 -5.68434189e-14,186.722117 -5.68434189e-14,211.87655 Z"/></g></g></svg>