<svg xmlns="http://www.w3.org/2000/svg" xmlns:xlink="http://www.w3.org/1999/xlink" width="339" height="306" version="1.1" viewBox="0 0 339 306"><title>winner</title><desc>Created with Sketch.</desc><g id="Page-1" fill="none" fill-rule="evenodd" stroke="none" stroke-width="1"><g id="Group-10" fill="#FFF" transform="translate(26.275976, -1.599551)"><path id="Stroke-50" fill-rule="nonzero" d="M106.226863,183.895483 C133.058114,177.730028 153.908705,145.80121 147.434131,116.814675 L137.284237,64.546718 L137.262072,64.4408335 C130.431947,34.025364 100.202217,14.8806414 69.7891573,21.7115366 C39.374568,28.5417048 20.2262486,58.7765732 27.0559758,89.1902691 L27.0903001,89.3303533 L40.7621443,140.789018 C47.3444897,169.897849 79.5507272,190.026094 106.226863,183.895483 Z M140.143811,118.284385 L140.165976,118.390269 C145.769686,143.344344 127.471855,171.383062 104.561289,176.647596 C81.8704524,181.862321 53.6423642,164.20393 48.002066,139.087806 L47.9677479,138.947749 L34.296601,87.4917094 C28.4113208,61.1089465 45.0343017,34.8927219 71.4187691,28.9675934 C97.8069363,23.0407051 124.041387,39.6403749 129.99431,66.0184482 L140.143811,118.284385 Z M34.2777479,87.4207494 L34.3120722,87.5608335 C34.3068987,87.5377954 34.3017424,87.5147574 34.2966033,87.4917196 L34.2777479,87.4207494 Z"/><path id="Stroke-51" fill-rule="nonzero" d="M57.4409474,111.249307 C57.4456263,111.206103 57.4640482,111.080018 57.5012594,110.883469 C57.5680821,110.530512 57.6637117,110.130697 57.7928372,109.696454 C58.164272,108.447337 58.7248779,107.19768 59.5059979,106.041291 C61.1003304,103.681004 63.4032073,102.000345 66.6267653,101.243768 C69.5401349,100.560003 72.1402812,101.601981 74.4631384,103.870608 C75.1342602,104.526061 75.7251067,105.233768 76.225457,105.939624 C76.5189163,106.353615 76.7100529,106.662477 76.7921962,106.811468 L77.7911127,108.623296 L81.4147683,106.625463 L80.4158518,104.813635 C79.854339,103.795167 78.8333289,102.354802 77.3543154,100.910319 C74.1110365,97.7427588 70.1674849,96.1624268 65.6812888,97.215333 C61.402859,98.2194901 58.2337268,100.53235 56.0770721,103.725113 C55.0426879,105.256439 54.3114405,106.886477 53.8265753,108.517055 C53.5315637,109.509165 53.3814169,110.302239 53.3271006,110.803795 L53.1043447,112.860719 L57.2181915,113.306231 L57.4409474,111.249307 Z"/><path id="Fill-52" d="M66.154024,102.858551 C68.614024,102.305551 71.064024,103.856551 71.624024,106.320551 C72.174024,108.784551 70.624024,111.234551 68.164024,111.787551 C65.694024,112.340551 63.244024,110.789551 62.694024,108.325551 C62.134024,105.861551 63.694024,103.411551 66.154024,102.858551 Z"/><polygon id="Stroke-53" fill-rule="nonzero" points="50.568 94.104 78.389 97.842 78.94 93.741 51.119 90.003"/><path id="Stroke-54" fill-rule="nonzero" d="M123.314633,97.3672723 C123.14667,97.089403 122.850323,96.6598949 122.423297,96.1287479 C121.730257,95.2667223 120.90354,94.4087466 119.938726,93.6067158 C116.292018,90.5752816 111.730613,89.1458565 106.38316,90.2568594 C102.553503,91.05255 99.8356775,93.446179 98.1078383,96.8350431 C97.3806709,98.261259 96.8777019,99.7696419 96.5526877,101.275429 C96.3563635,102.184998 96.2610274,102.908122 96.2299584,103.359469 L96.0878763,105.423535 L100.216007,105.707699 L100.35809,103.643633 C100.361383,103.595787 100.373676,103.470649 100.398833,103.279838 C100.443335,102.94229 100.508346,102.561238 100.597441,102.148462 C100.851839,100.969841 101.243983,99.7938153 101.794238,98.7145833 C102.99227,96.3648462 104.741582,94.8242014 107.224903,94.3082401 C111.239887,93.4740749 114.556368,94.5133732 117.293565,96.78875 C118.033857,97.4041397 118.670475,98.0648289 119.198392,98.7214682 C119.503941,99.1015201 119.696582,99.3807223 119.773415,99.5078304 L120.843694,101.27844 L124.384912,99.1378814 L123.314633,97.3672723 Z"/><path id="Fill-55" d="M108.334024,95.5725513 C105.864024,96.1105513 104.304024,98.5505513 104.844024,101.017551 C105.374024,103.485551 107.814024,105.052551 110.284024,104.514551 C112.754024,103.977551 114.314024,101.537551 113.784024,99.0695513 C113.244024,96.6025513 110.804024,95.0355513 108.334024,95.5725513 Z"/><polygon id="Stroke-56" fill-rule="nonzero" points="116.542 77.575 92.896 92.698 95.126 96.184 118.772 81.061"/><polygon id="Stroke-57" fill-rule="nonzero" points="86.487 129.14 101.384 125.798 100.251 120.751 85.354 124.093"/><path id="Stroke-58" fill-rule="nonzero" d="M119.208216,136.655544 C119.37729,140.099604 119.032523,143.09505 117.908101,145.379455 C113.931718,153.450402 107.509277,160.55085 101.013369,162.011699 C94.1199201,163.563917 85.0072356,159.535962 77.9231252,153.630552 C76.4521509,152.40388 75.2572893,150.550923 74.245197,148.227111 C73.6583157,146.879604 73.1684651,145.45095 72.7674002,144.024207 C72.5263959,143.166862 72.3666355,142.492721 72.2843433,142.089116 C72.0139582,140.762999 73.1112441,139.55683 74.4569523,139.700918 C74.5044443,139.706003 74.600574,139.71597 74.7420151,139.730122 C74.9803625,139.753971 75.2573991,139.780616 75.5697937,139.809362 C76.4649018,139.891728 77.4617237,139.97418 78.5335165,140.051159 C81.4600727,140.261351 84.3779097,140.391314 87.0917704,140.401815 C90.8974374,140.41654 93.9860744,140.191356 96.036235,139.698027 C98.9213796,139.003956 103.255612,137.136853 108.327491,134.54377 C110.127927,133.623267 111.895694,132.675225 113.554561,131.753364 C114.135066,131.430767 114.660224,131.134638 115.120588,130.871664 C115.395602,130.714568 115.588772,130.602941 115.685538,130.546428 C115.688667,130.544601 115.691798,130.542784 115.694931,130.540976 L117.414927,129.538557 L118.380538,131.195398 C118.408859,131.239773 118.435549,131.285522 118.460496,131.332594 L119.429043,132.994471 L118.888903,133.309266 C119.037893,134.368606 119.151371,135.497617 119.208216,136.655544 Z M110.148375,138.105284 C104.80857,140.835348 100.25337,142.79764 96.9719272,143.587048 C94.5387545,144.172541 91.176805,144.417651 87.076293,144.401785 C84.2615249,144.390893 81.2569998,144.25707 78.2469653,144.040882 C77.7892601,144.008008 77.3447747,143.974153 76.9154008,143.939719 C77.2067274,144.864051 77.5395194,145.77358 77.9124728,146.629899 C78.6981345,148.433815 79.5835329,149.806865 80.4846467,150.55832 C86.699919,155.739455 94.7862208,159.313732 100.135208,158.109285 C105.144357,156.98279 110.828205,150.698907 114.319618,143.612316 C115.075264,142.077124 115.351662,139.675688 115.213027,136.851674 C115.190036,136.383344 115.156454,135.918734 115.11413,135.462237 C113.529455,136.337938 111.854723,137.232884 110.148375,138.105284 Z"/><path id="Stroke-59" fill-rule="nonzero" d="M60.4268984,198.91371 C59.77142,199.098966 59.0882303,199.291307 58.2561777,199.524987 C57.8013532,199.652724 56.2554371,200.086466 56.0824899,200.135014 C39.1666398,204.88342 31.3474882,207.553084 23.1913208,212.042685 C12.2121002,218.086249 4.86614258,226.076057 1.2064863,237.109865 L0,240.747403 L7.27507541,243.160375 L8.48156171,239.522838 C11.4855068,230.465989 17.4991597,223.925258 26.8874758,218.757415 C34.3497888,214.649749 41.8128478,212.101665 58.1539908,207.514583 C58.3260793,207.466276 59.8726793,207.032342 60.3286403,206.904287 C61.1644209,206.669559 61.8514385,206.476141 62.5115231,206.289583 C71.7995424,203.664533 77.6940203,201.80817 83.5595591,199.514833 L86.3115054,198.438864 L83.6690726,175.669901 L76.055374,176.553503 L78.0126367,193.418583 C73.2409788,195.163196 68.0121127,196.76992 60.4268984,198.91371 Z"/><path id="Stroke-60" fill-rule="nonzero" d="M269.203496,158.654445 C269.399294,159.250398 269.619162,159.946763 269.857143,160.734783 C270.542432,163.003953 271.229632,165.536843 271.871314,168.262482 C273.643033,175.78812 274.724866,183.282435 274.782094,190.185221 C274.920136,206.83554 269.378839,216.629029 256.241178,218.509895 L251.122321,219.24274 L252.588013,229.480454 L257.70687,228.747608 C277.003618,225.984971 285.299793,211.322611 285.123839,190.099481 C285.059435,182.331242 283.872456,174.108533 281.938199,165.892491 C281.245186,162.948815 280.502354,160.210876 279.757613,157.744842 C279.305318,156.247177 278.947604,155.158397 278.732121,154.545764 L278.69782,154.451192 L243.03746,59.0383959 L233.349869,62.6591156 L268.990658,158.019548 C269.031088,158.136134 269.103389,158.349747 269.203496,158.654445 Z"/><path id="Stroke-61" fill-rule="nonzero" d="M223.41529,180.175608 C222.360966,176.587826 219.847199,159.992453 216.497641,135.084989 C216.190817,132.80343 215.878189,130.461541 215.560266,128.06382 C214.00106,116.304562 212.379821,103.702739 210.791659,91.1005489 C210.235767,86.6894952 209.723732,82.5936034 209.267428,78.9180332 C209.107749,77.6318036 208.966452,76.4900673 208.845019,75.5059668 C208.777885,74.9616186 208.777885,74.9616186 208.73432,74.6077331 L208.696559,74.3005993 L208.066607,69.168064 L197.801537,70.427968 L198.431489,75.5605033 L198.469645,75.8708524 C198.513416,76.2264152 198.513416,76.2264152 198.580767,76.7725154 C198.702506,77.7591046 198.844116,78.9033685 199.004115,80.1921736 C199.461177,83.8738453 199.973997,87.9760231 200.530719,92.3936597 C202.121457,105.016299 203.745422,117.639305 205.307897,129.423222 C205.626642,131.827138 205.940114,134.175346 206.247809,136.463387 C209.737188,162.41057 212.207126,178.71659 213.492758,183.091494 L214.950701,188.05276 L224.873233,185.136874 L223.41529,180.175608 Z"/><path id="Stroke-62" fill-rule="nonzero" d="M226.287893,7.29110267 L235.331138,22.6637521 C235.341911,22.7146842 235.353291,22.7686612 235.365262,22.8256377 C235.486615,23.4032231 235.622225,24.0695125 235.768531,24.8145967 C236.187615,26.9488342 236.607061,29.2805117 236.998414,31.729773 C237.652943,35.8260972 238.160615,39.8261771 238.464395,43.5626724 C239.095558,51.3259494 238.758685,57.2658045 237.454389,60.2052036 C234.876017,62.0889294 229.251754,64.0514179 221.740607,65.7787848 C217.572766,66.737279 213.089406,67.5713681 208.603576,68.2745334 C207.031724,68.5209252 205.572854,68.733173 204.265368,68.9107716 C204.139115,68.9279209 204.016856,68.9443936 203.898693,68.9601885 L174.872485,49.9719811 L174.074285,29.0769001 L210.887039,24.5519815 L211.939807,30.8205501 L189.496299,40.61455 L192.296023,47.0302765 L219.748241,35.0505526 L216.681009,16.7871212 L180.068209,21.2874621 L179.850931,10.6030455 L226.287893,7.29110267 Z M166.833763,22.9142026 L168.015563,53.8511215 L202.215259,76.2236928 L203.481519,76.0715619 C203.565763,76.0614406 203.721392,76.0421916 203.94368,76.0138579 C204.309386,75.9672436 204.732246,75.9116358 205.207542,75.8470753 C206.560742,75.6632672 208.066635,75.4441781 209.687607,75.1900867 C214.324127,74.4633002 218.963118,73.6002575 223.309471,72.6007101 C232.452532,70.4980457 239.055051,68.1208326 242.528006,65.1069667 L242.985706,64.7097703 L243.283218,64.1818111 C245.729502,59.8406775 246.225202,52.6364878 245.441375,42.9954369 C245.121576,39.0619165 244.591828,34.8878932 243.910731,30.6252928 C243.505595,28.0897737 243.071658,25.6775409 242.637359,23.4658186 C242.484982,22.6898169 242.343243,21.9934132 242.215693,21.3863334 C242.138298,21.0179671 242.082225,20.7585571 242.051025,20.6178557 L241.93126,20.0777463 L230.120155,0 L172.717117,4.09405717 L173.084219,22.1459143 L166.833763,22.9142026 Z"/><path id="Stroke-63" fill-rule="nonzero" d="M130.033799,168.530171 L122.405644,169.278776 L124.913527,194.833681 L128.627354,194.577894 C153.606752,192.857454 169.802088,189.884138 186.856848,184.22958 C194.264549,181.773533 198.058774,180.315156 215.727586,173.303732 L219.289767,171.89017 L216.462643,164.765809 L212.900462,166.17937 C195.396912,173.125214 191.652175,174.56457 184.444685,176.954236 C168.883707,182.113526 154.080747,184.950326 131.813113,186.661078 L130.033799,168.530171 Z"/></g></g></svg>